<svg xmlns="http://www.w3.org/2000/svg" width="203.5" height="60.347" viewBox="0 0 203.5 60.347">
  <g id="Group_1126" data-name="Group 1126" transform="translate(142.5 -184.5)">
    <g id="XMLID_4365_" transform="translate(-142 185)">
      <g id="XMLID_4452_">
        <path id="XMLID_4455_" d="M70.639,19.786H14.7a29.658,29.658,0,0,1,53.656-4.949A27.807,27.807,0,0,1,70.639,19.786Z" transform="translate(-12.996)" fill="#cd1225" stroke="#e3e3e3" stroke-width="1"/>
        <path id="XMLID_4454_" d="M70.551,341.3a29.667,29.667,0,0,1-53.667,4.949,30.3,30.3,0,0,1-2.283-4.938H70.551Z" transform="translate(-12.908 -301.739)" stroke="#e3e3e3" stroke-width="1"/>
        <path id="XMLID_4453_" d="M59.347,180.587a29.384,29.384,0,0,1-1.7,9.887H1.7a29.539,29.539,0,0,1,0-19.775H57.655A29.669,29.669,0,0,1,59.347,180.587Z" transform="translate(0 -150.914)" fill="#fff" stroke="#e3e3e3" stroke-width="1"/>
      </g>
      <g id="XMLID_4366_" transform="translate(22.765 20.268)">
        <path id="XMLID_4448_" d="M215.679,316.737a.1.1,0,0,0-.081-.012l-.116.035a.079.079,0,0,0-.046.093s.046.058.081.058l-.058.209-.325-.081.116-.348a.091.091,0,0,0,0-.058l-.1-.035-.116.035s-.07.058-.058.1a.164.164,0,0,0,.035.058l-.035.22-.22-.058.232-.777s0-.07-.035-.081l-.093.012a.586.586,0,0,1-.278.023.229.229,0,0,0-.081.023.18.18,0,0,0,.023.128,1.02,1.02,0,0,0,.267,0l-.116.371a.435.435,0,0,0-.359.232.2.2,0,0,0-.012.07l.046.046.267.081h.012v.012l.336.081.012.012.035.012h.012l.44.116h.023a.087.087,0,0,0,.081-.058l.116-.417Zm-1.066.151-.093-.035a.86.86,0,0,1,.07-.058Z" transform="translate(-212.225 -299.729)" fill="#bf920d"/>
        <path id="XMLID_4444_" d="M226.485,319.7a.065.065,0,0,0-.1,0l-.058.058a.167.167,0,0,0-.023.035v.371a1.408,1.408,0,0,1-.128.591.143.143,0,0,1-.058.023.688.688,0,0,1,.012-.128.057.057,0,0,0-.012-.035.172.172,0,0,0-.162-.093h-.023a.8.8,0,0,0-.046-.116l.185-.058a.314.314,0,0,0,.046-.058.071.071,0,0,0-.012-.069l-.116-.127-.128-.162a.041.041,0,0,0-.035-.023.108.108,0,0,0-.07,0l-.1.1a1.78,1.78,0,0,1-.2.116.064.064,0,0,0-.035.058l.023.07.162.139a.265.265,0,0,1-.116.081,1.4,1.4,0,0,1-.29-.035.486.486,0,0,0-.046-.278s-.07-.058-.1-.035a.208.208,0,0,0-.058.07.492.492,0,0,1,.035.3c-.035.081-.128.128-.267.162l-.058.093a.087.087,0,0,0,.081.058l.012-.012a.5.5,0,0,0,.359-.22,1.1,1.1,0,0,0,.348.046.332.332,0,0,0,.232-.151.6.6,0,0,1,.035.058c0,.151.1.151.174.151h.012c-.012.1-.012.209.07.243a.547.547,0,0,0,.058.023.272.272,0,0,0,.2-.07,1.325,1.325,0,0,0,.174-.707v-.313l.035-.035C226.508,319.771,226.508,319.724,226.485,319.7Zm-.742.58-.116-.093.116-.07.046-.035.07.093v.012l.035.046Z" transform="translate(-221.42 -302.889)" fill="#bf920d"/>
        <path id="XMLID_4443_" d="M240.834,320.874l.058-.73a.084.084,0,0,0,.081-.139l-.081-.081-.081-.023a.163.163,0,0,0-.058.035l-.07.916a.065.065,0,0,0,.07.081h0C240.8,320.955,240.834,320.92,240.834,320.874Z" transform="translate(-235.548 -303.088)" fill="#bf920d"/>
        <path id="XMLID_4438_" d="M243.953,324.933l-.081-.336a.16.16,0,0,0-.035-.046.409.409,0,0,0-.07-.012s-.278.1-.313.336h-.116l-.023-.209c-.012-.035-.035-.07-.07-.07l-.788-.035v-.093l-.035-.058-.07-.012-.093.035a.087.087,0,0,0-.046.1s.058.058.081.046v.255l-.128-.012a.637.637,0,0,0-.116-.243.125.125,0,0,0-.081-.035q-.087.087-.035.139c.023.035.116.162.093.255s-.151.151-.359.174a.085.085,0,0,0-.07.081s.035.069.07.069h.012c.267-.035.429-.127.475-.278l.012-.012.73.058a.3.3,0,0,0,.081.185.189.189,0,0,0,.128.058.04.04,0,0,0,.023-.012.235.235,0,0,0,.209-.243h.533l.058-.023Zm-.835.185a.051.051,0,0,1-.035-.012.787.787,0,0,1-.035-.139s-.023-.081-.07-.081l-.51-.035v-.128l.707.035.023.209C243.188,324.968,243.211,325.107,243.118,325.119Zm.5-.232a.331.331,0,0,1,.128-.151l.035.151Z" transform="translate(-236.361 -307.067)" fill="#bf920d"/>
        <path id="XMLID_4434_" d="M264.4,320.867h-.07a.728.728,0,0,1-.1.046s-.07.035-.07.07l.081.081h.023l.035.2-.232.035-.093-.835a.143.143,0,0,0-.023-.058.1.1,0,0,0-.116.012l-.069.07a.074.074,0,0,0-.012.1.2.2,0,0,0,.046.035l.07.394a.392.392,0,0,0-.267.371v.012a.155.155,0,0,0,.012.058.1.1,0,0,0,.081.035c.058,0,.139-.012.3-.023l.371-.058.07-.081v-.394A.07.07,0,0,0,264.4,320.867Zm-.638.464a.214.214,0,0,1,.127-.151l.012.128A.346.346,0,0,1,263.762,321.331Z" transform="translate(-255.811 -303.522)" fill="#bf920d"/>
        <path id="XMLID_4433_" d="M271.238,324.877a.074.074,0,0,0-.1.012s-.023.081.012.116c0,0,.209.162.151.325a.319.319,0,0,1-.232.185c-.058.012-.093.035-.081.081,0,0,.035.07.081.07h0a.451.451,0,0,0,.371-.29C271.528,325.12,271.25,324.888,271.238,324.877Z" transform="translate(-262.336 -307.474)" fill="#bf920d"/>
        <path id="XMLID_4425_" d="M277.95,317.288l-.313.058a3.329,3.329,0,0,0-.209-.591.3.3,0,0,0-.243-.2.337.337,0,0,0-.209.035c-.07.07-.07.116-.035.151h.1a.215.215,0,0,1,.116-.023.174.174,0,0,1,.116.1,4.833,4.833,0,0,1,.2.568l-.151.07a.011.011,0,0,0-.012-.012c-.29-.128-.325-.1-.348-.069a1.346,1.346,0,0,0-.127.174l-.081.023c-.023-.116-.1-.29-.243-.29a1.1,1.1,0,0,0-.162.012,1.216,1.216,0,0,0-.046-.2s-.046-.069-.093-.058a.08.08,0,0,0-.058.093c.012.058.023.127.035.2l-.047.023c-.069.046-.139.116-.151.336l-.116.023a.718.718,0,0,0-.046-.232.375.375,0,0,0-.1-.023l-.29.209a.2.2,0,0,0-.035.046l.035.151a.087.087,0,0,0,.093.058l.2-.035a.236.236,0,0,1-.174.185.166.166,0,0,0-.081.035c0,.081.035.116.081.116a.417.417,0,0,0,.232-.128.333.333,0,0,0,.1-.243l.417-.07a.745.745,0,0,0,.081.185.327.327,0,0,0,.128.058s.081-.012.127-.023c0,0,.127-.058.127-.151v-.151l.07-.023.023.012a.823.823,0,0,0,.336.058c.081-.023.1-.1.116-.174l.243-.093.371-.07a.1.1,0,0,0,.07-.093C278.031,317.312,278,317.288,277.95,317.288Zm-2.341.487.127-.093.012.07Zm.568-.093c.012-.139.046-.162.046-.162l.023-.023c.012.058.023.116.035.162Zm.22-.232a.411.411,0,0,0,.081-.012c.07,0,.1.07.127.151l-.174.035Q276.414,317.555,276.4,317.451Zm.267.406a.254.254,0,0,1-.1.035l-.023-.012c-.012-.012-.023-.058-.046-.1l.174-.023Zm.522-.232a1.351,1.351,0,0,1-.186-.035.352.352,0,0,0,.058-.081c.035.012.081.035.139.058C277.208,317.59,277.185,317.625,277.185,317.625Z" transform="translate(-266.243 -300.129)" fill="#bf920d"/>
        <path id="XMLID_4424_" d="M262.7,321.6a.168.168,0,0,0-.046-.1c-.1,0-.151.046-.151.1a.1.1,0,0,0,.1.093S262.7,321.651,262.7,321.6Z" transform="translate(-254.838 -304.503)" fill="#bf920d"/>
        <path id="XMLID_4423_" d="M215.4,318.385s.093-.035.093-.093a.125.125,0,0,0-.046-.093c-.1,0-.151.035-.151.093A.1.1,0,0,0,215.4,318.385Z" transform="translate(-213.109 -301.585)" fill="#bf920d"/>
        <path id="XMLID_4422_" d="M215.893,324.9a.1.1,0,0,0-.093.093.091.091,0,0,0,.093.093.085.085,0,0,0,.093-.093A.11.11,0,0,0,215.893,324.9Z" transform="translate(-213.551 -307.509)" fill="#bf920d"/>
        <path id="XMLID_4421_" d="M218.193,325.7a.139.139,0,0,0-.093.035c0,.1.035.151.093.151a.085.085,0,0,0,.093-.093S218.239,325.7,218.193,325.7Z" transform="translate(-215.585 -308.216)" fill="#bf920d"/>
        <path id="XMLID_4420_" d="M221.693,326.7a.093.093,0,1,0,.093.093A.091.091,0,0,0,221.693,326.7Z" transform="translate(-218.679 -309.1)" fill="#bf920d"/>
        <path id="XMLID_4419_" d="M263,323.793a.1.1,0,0,0-.093-.093.1.1,0,0,0-.1.093.1.1,0,0,0,.1.1A.1.1,0,0,0,263,323.793Z" transform="translate(-255.103 -306.448)" fill="#bf920d"/>
        <path id="XMLID_4418_" d="M265.4,330.5a.093.093,0,1,0,0,.185s.093-.035.093-.093A.091.091,0,0,0,265.4,330.5Z" transform="translate(-257.314 -312.459)" fill="#bf920d"/>
        <path id="XMLID_4417_" d="M267.4,330.3a.193.193,0,0,0-.1.035c0,.1.046.151.1.151a.091.091,0,0,0,.093-.093C267.5,330.4,267.451,330.3,267.4,330.3Z" transform="translate(-259.082 -312.283)" fill="#bf920d"/>
        <path id="XMLID_4416_" d="M294.293,326a.1.1,0,0,0-.093.1.1.1,0,0,0,.093.093.1.1,0,0,0,.1-.093A.1.1,0,0,0,294.293,326Z" transform="translate(-282.864 -308.481)" fill="#bf920d"/>
        <path id="XMLID_4379_" d="M210.24,190.837V190.8c-.012-.151-.012-.29-.012-.429l-.035-.823c-.012-.371-.035-.73-.046-1.1l-.255-5.68c-.012-.44-.035-.881-.058-1.321l-.1-2.2c-.023-.383-.243-1.032-.753-1.136a3.25,3.25,0,0,0-2.168.58c-.139.07-.278.151-.394.209a4.533,4.533,0,0,1-1.368.243,2.115,2.115,0,0,1-.209-.429,2.358,2.358,0,0,1-.162-.568,6.467,6.467,0,0,1-.058-1.287c0-.116.012-.232.012-.336a2.091,2.091,0,0,0-.209-1.02.165.165,0,0,0-.023-.046.891.891,0,0,0-.591-.429c-.22-.035-.383-.081-.5-.1-.29-.07-.348-.081-.44-.035a.182.182,0,0,0-.081.058,3.089,3.089,0,0,0-.823-.046.5.5,0,0,0-.429.313l-.012.035-.012.035a1.153,1.153,0,0,0-.023.417v.035l.012.012.012.012v.012l.012.012.012.012h0l.012.012h.058l.012-.012h0l.012-.012.012-.012.012-.012v-.012c.012-.012.035-.012.081-.035l.081-.035a.35.35,0,0,1,.116-.023.727.727,0,0,1,.429.348.664.664,0,0,1,.1.278,1.684,1.684,0,0,1,.035.255,2.007,2.007,0,0,1-.046.614l-.012.07a5.855,5.855,0,0,1-.811,1.947,2.99,2.99,0,0,1-1.8-.452,3.286,3.286,0,0,0-2.168-.58c-.522.1-.742.742-.765,1.136l-.093,2.2c-.023.44-.035.881-.058,1.321l-.243,5.68c-.012.371-.035.73-.046,1.1l-.035.823c-.012.151-.012.29-.012.429v.035a.115.115,0,0,0-.012.046.385.385,0,0,0,.07.035l.035-.012.012-.012.811-.73c.093-.07.185-.162.278-.243l.046-.035,1.055-.95.012-.012.035-.035.533-.475c.116-.1.232-.209.348-.325l.046-.046c.128-.116.255-.232.383-.336l-.719,2.538c-.116-.035-.243-.081-.359-.128a.3.3,0,0,0-.278.035l-.012.012-.012.012a.838.838,0,0,0-.556.336.565.565,0,0,0-.046.44c-.023.058-.035.127-.058.209-.127.012-.348.1-.556.487H197.3s-.081.035-.081.081l.07.093.128.035c.023.151.081.51.325.638,0,0,.012.07.023.116a.553.553,0,0,0,.359.522,20.541,20.541,0,0,0,4.718.545h1.1a19.966,19.966,0,0,0,4.59-.545.552.552,0,0,0,.359-.522.433.433,0,0,0,.012-.093.961.961,0,0,0,.336-.661l.128-.035a.115.115,0,0,0,.07-.093.1.1,0,0,0-.093-.081h-.162c-.209-.382-.429-.475-.556-.487a.9.9,0,0,0-.058-.209.565.565,0,0,0-.046-.44.838.838,0,0,0-.556-.336v-.012l-.012-.012a.275.275,0,0,0-.267-.035c-.128.046-.243.093-.359.128l-.719-2.538c.139.127.29.255.429.382.1.093.2.185.3.278a.144.144,0,0,1,.035.023l.591.533.012.012.3.278.788.707c.093.081.185.174.278.243l.811.73v.012a.036.036,0,0,0,.023.012l.07-.023C210.228,190.9,210.252,190.849,210.24,190.837Zm-7.047-15.555a.128.128,0,1,1,0,.255.129.129,0,0,1-.127-.128C203.053,175.352,203.123,175.282,203.192,175.282Zm-1.53,4a.515.515,0,0,0,.093-.128c.023-.046.058-.081.081-.128s.058-.081.081-.127l.035-.07.035-.07c.023-.058.046-.1.046-.1a.55.55,0,0,1,.046-.093l.035-.081a.572.572,0,0,1,.035-.081v-.012l.023-.046.035-.1a.143.143,0,0,0,.023-.058s.023-.07.035-.093c.023-.07.046-.151.07-.209a.089.089,0,0,0,.012-.035l.023-.081.012-.058c.058-.2.1-.359.139-.475l.012-.07a2.249,2.249,0,0,0,.046-.649,2.279,2.279,0,0,0-.035-.278l-.012-.07c.07-.058.2-.023.406-.023-.44-.661-.7-.719-.927-.777a.3.3,0,0,0-.336.185.168.168,0,0,1-.035.023.165.165,0,0,0-.046.023.617.617,0,0,1,.012-.209l.012-.058v-.023l.035-.07a.344.344,0,0,1,.174-.081,2.07,2.07,0,0,1,.267-.023.275.275,0,0,1,.2.07,2.817,2.817,0,0,0,.371.278.627.627,0,0,0,.3.128l.081.081a.161.161,0,0,0,.116.058.156.156,0,0,0,.174-.1.3.3,0,0,1,.128-.081,1.613,1.613,0,0,1,.22-.07.988.988,0,0,1,.267-.035.374.374,0,0,1,.29.081s.023.023.023.035.035.081.058.128l.07.209a3.043,3.043,0,0,1,.07.556v.069c0,.1-.012.209-.012.325a5.371,5.371,0,0,0,.058,1.321,2.835,2.835,0,0,0,.359.985,1.269,1.269,0,0,0,.07.127c.035.046.07.093.093.128a.908.908,0,0,1-.429-.116.439.439,0,0,1-.128-.081c-.023-.023-.023-.035-.023-.035-.023-.058-.046-.116-.07-.162-.07-.174-.151-.359-.209-.545a8.053,8.053,0,0,1-.185-1.252.087.087,0,0,0-.035-.07c-.07,0-.1.035-.093.07a6.187,6.187,0,0,0,.185,1.287,5.426,5.426,0,0,0,.209.556l.035.1a.512.512,0,0,1,.035.093c.058.151.093.255.116.336a1.747,1.747,0,0,1-.614-.29.422.422,0,0,1-.128-.116v-.023a14.3,14.3,0,0,1-.1-2.005.117.117,0,0,0-.023-.081q-.1,0-.1.07a16.354,16.354,0,0,0,.1,2.017.04.04,0,0,0,.012.023.919.919,0,0,1-.07.116,1.8,1.8,0,0,1-.162.174.454.454,0,0,0-.046.058c-.046.023-.07.012-.07.012a2.19,2.19,0,0,1-.232-.232,1.233,1.233,0,0,0-.1-.127h0a4.122,4.122,0,0,0,.417-2.063s-.023-.07-.058-.07l-.07.07a3.759,3.759,0,0,1-.452,2.063l-.07.093a1.508,1.508,0,0,1-.417.325c.012-.081.035-.185.058-.29a.628.628,0,0,0,.023-.127l.012-.035a4.413,4.413,0,0,0,.638-1.947s-.012-.07-.058-.081c0,0-.07.023-.07.058a3.73,3.73,0,0,1-.707,2.005.676.676,0,0,1-.151.127.776.776,0,0,1-.243.116.788.788,0,0,1-.22.035A1.574,1.574,0,0,0,201.662,179.281Zm-.927,8.183.29.765.035.023c.012.012.035,0,.035,0l.5-.672.243,1.217c-.243.348-.44.649-.545.788-.046-.139-.139-.417-.29-.823l-.035-.035a.051.051,0,0,0-.035.012l-.522.777-.394-1.333Zm5.17,3.106-.417-.568-.023-.023-.058.035-.243.614a2.794,2.794,0,0,1-.44,0l-.162-.73.2-.974c.568.811.568.811.614.8l.035-.046c.012-.046.162-.487.278-.811l.5.742Zm.348-.846.475.707a6.048,6.048,0,0,1-.73.128Zm-.452.869a4.366,4.366,0,0,1-.522.035l.2-.5Zm-2.005.174a.4.4,0,0,0-.336.139.392.392,0,0,0-.07.174H203.2a.386.386,0,0,0-.058-.174.4.4,0,0,0-.336-.139.366.366,0,0,0-.278-.151,1.345,1.345,0,0,0-.313,0,1.4,1.4,0,0,1-.232.012l.116-.533.232.371a.091.091,0,0,0,.046.035l.394-.348.012-.023.29-2.249-.139,2.26.012.035.325.382a.09.09,0,0,0,.058.023l.336-.394.012-.035-.139-2.26.29,2.249.012.023.371.336a.061.061,0,0,0,.058.012l.243-.394.116.533a1.476,1.476,0,0,0-.22-.012,1.245,1.245,0,0,0-.3,0A.361.361,0,0,0,203.8,190.768Zm.058.313h0c.012,0,.023.035.035.058a.439.439,0,0,0,.081.093l-.012.035a.342.342,0,0,1-.174.162l-.07.058a.265.265,0,0,0-.128.127,2.6,2.6,0,0,1-.1-.348.5.5,0,0,1,0-.185.269.269,0,0,1,.046-.116.266.266,0,0,1,.22-.1.117.117,0,0,0,.035.128Zm-.73.174a1.4,1.4,0,0,1-.1.348.265.265,0,0,0-.128-.128c-.023-.023-.058-.035-.081-.058-.07-.046-.151-.081-.162-.162l-.012-.035.081-.093.035-.058h.012l.058-.081a.174.174,0,0,0,.046-.128.266.266,0,0,1,.22.1.218.218,0,0,1,.046.116A.769.769,0,0,0,203.123,191.255Zm-1.913-1.24-.035-.035a.051.051,0,0,0-.035.012l-.429.58-.278-.951.51-.742c.116.325.267.765.278.811l.046.046c.035.012.046.012.614-.8l.2.974-.162.73a2.785,2.785,0,0,1-.44,0Zm.139.614c-.162-.012-.348-.023-.533-.035l.336-.464Zm-.73-.058a6.477,6.477,0,0,1-.73-.128l.475-.707Zm1.321-1.762.012-.012c.185-.267.371-.533.5-.707l-.336,1.576Zm.5-2.55c.1.1.209.209.325.313l-.232,1.09-.348-1.09Zm-.73.742-.07-.719c.151-.151.3-.278.452-.406.093.1.185.209.29.313Zm2.724-.429-.348,1.09-.232-1.09c.116-.1.22-.209.325-.313Zm-.185-.383a3.854,3.854,0,0,0,.29-.325c.151.127.29.255.452.406l-.07.719Zm-.081,1.889c.116.185.3.44.5.707l.012.012-.174.846Zm.533.6c-.2-.29-.394-.591-.58-.835l.383-1.182.394.5s.035.023.046.012l.035-.035.081-.765c.325.29.672.6,1.032.927a1.258,1.258,0,0,0,.128.116s.081.07.116.1l.035.035a.316.316,0,0,0,.058.046l.1.394-.661-.649-.023-.023a.372.372,0,0,0-.058.035l-.29.742-.5-.672-.046-.023-.046.035Zm1.623-1.391a1.092,1.092,0,0,1-.116-.116s-.035-.023-.058-.035l-.162-3.941a7.579,7.579,0,0,0,.232-1.043l.209,5.239A.889.889,0,0,1,206.322,187.29Zm-.348-4.4a7.281,7.281,0,0,1-1.518,2.921,7.733,7.733,0,0,1-.684.7v.012l-.035.035-.07.058-.1.081c-.081.07-.174.139-.255.209-.081-.07-.174-.139-.255-.209-.035-.023-.07-.058-.1-.081l-.058-.046c-.023-.012-.035-.035-.058-.046l-.012-.012a9.636,9.636,0,0,1-.684-.7,7.281,7.281,0,0,1-1.518-2.921,7.488,7.488,0,0,1-.22-1.368l.023-.6a5.109,5.109,0,0,0,2.793-.788.594.594,0,0,1,.058-.035s.058.023.081.035a5.15,5.15,0,0,0,2.793.788l.023.6A5.9,5.9,0,0,1,205.974,182.886Zm-5.344.325-.162,3.941s-.035.035-.046.035a.889.889,0,0,1-.081.07,1.774,1.774,0,0,0-.151.151l.209-5.239A6.735,6.735,0,0,0,200.631,183.21Zm-.417,4.335.046-.035c.035-.035.081-.07.116-.1a1.094,1.094,0,0,0,.116-.116c.359-.325.707-.637,1.043-.927l.081.765.035.035.058-.012.394-.5.383,1.182c-.186.255-.383.556-.58.835l-.243-1.229-.035-.035c-.023-.012-.035,0-.035,0l-.51.7-.29-.742-.035-.023c-.023-.012-.035,0-.035,0l-.684.661.116-.394Zm-.255.788.371,1.263-.533.811c-.128-.035-.255-.07-.383-.116Zm-1.252,1.936.012-.012.012-.012a.16.16,0,0,1,.185-.023,2,2,0,0,0,.371.128,8.628,8.628,0,0,0,1.345.325c.185.023.371.035.545.046a1.257,1.257,0,0,0,.209.012h.591a2.052,2.052,0,0,1,.255-.012c.139-.012.243-.012.29-.012a.318.318,0,0,1,.2.081c.035.081.035.128.023.128a.743.743,0,0,0-.07.1l-.023.023-.012.023a.453.453,0,0,0-.046.058.336.336,0,0,1-.185.07,6.584,6.584,0,0,1-.835.012c-.22-.012-.44-.023-.684-.058l.012-.012a.367.367,0,0,0-.151-.441l-.023-.012a.142.142,0,0,0-.1-.035H200.6l-.07.012h-.012a.347.347,0,0,0-.22.22.036.036,0,0,0-.012.023.771.771,0,0,0-.012.151v.012q-.3-.052-.556-.1a9.305,9.305,0,0,1-.985-.255.041.041,0,0,1-.012-.023l-.012-.012a.484.484,0,0,1-.023-.128,1.191,1.191,0,0,1-.012-.209C198.66,190.362,198.672,190.3,198.707,190.269Zm2.1.893a.7.7,0,0,1-.058.139v.012l-.058.058a.944.944,0,0,0-.128.151.468.468,0,0,0-.058-.1.582.582,0,0,1-.128-.313.688.688,0,0,1,.012-.127l.012-.058a.226.226,0,0,1,.151-.139.036.036,0,0,1,.023-.012l.093.023a.3.3,0,0,1,.139.185A.5.5,0,0,1,200.8,191.162Zm-2.608-.614a.662.662,0,0,1,.383-.255.115.115,0,0,0-.012.046c0,.07.012.139.012.2s.012.1.023.151l-.07.023-.116.046a.754.754,0,0,0-.267.162l-.023-.093A.5.5,0,0,1,198.2,190.548Zm9.841-.255a.723.723,0,0,1,.383.255.528.528,0,0,1,.058.232s-.012.093-.023.139a1.141,1.141,0,0,0-.232-.151.938.938,0,0,0-.151-.07.456.456,0,0,1-.07-.023.678.678,0,0,0,.023-.151,1,1,0,0,0,.012-.185C208.049,190.362,208.049,190.316,208.038,190.293Zm-.07.487a.928.928,0,0,1,.394.209.74.74,0,0,1,.07.267l.035.058.046.023s.278-.035.51.429l.023.023c-.012.139-.081.475-.255.545a.163.163,0,0,0-.046.046.554.554,0,0,0-.046.209.4.4,0,0,1-.255.382,20.613,20.613,0,0,1-4.66.522h-.962a20.715,20.715,0,0,1-4.66-.522.4.4,0,0,1-.255-.382,1.1,1.1,0,0,0-.046-.209.163.163,0,0,0-.046-.046c-.174-.07-.243-.394-.255-.545l.023-.023c.232-.464.475-.44.475-.44a.2.2,0,0,0,.07-.012l.035-.058a1.157,1.157,0,0,1,.058-.267,1.127,1.127,0,0,1,.394-.209.036.036,0,0,1,.012.023,7.607,7.607,0,0,0,1.634.394.882.882,0,0,0,.128.278.246.246,0,0,1,.081.2.162.162,0,0,0,.046.058h.012a.043.043,0,0,0,.035-.023.5.5,0,0,1,.162-.267.237.237,0,0,0,.058-.058l.023-.035.035-.07c.348.035.7.058,1.008.058.2,0,.371-.012.556-.012.035-.012.081-.023.081-.023a.7.7,0,0,0,.255.209l.07.035a.313.313,0,0,1,.1.127l.035.07.035.023H203l.035-.035a2.07,2.07,0,0,0,.151-.487h.185a2.247,2.247,0,0,0,.151.487.143.143,0,0,0,.023.035h.023l.035-.023.046-.07a.313.313,0,0,1,.1-.127l.07-.035a.477.477,0,0,0,.22-.232c.035.012.081.023.116.035.174.012.359.012.556.012a7.787,7.787,0,0,0,1.008-.058l.023.046.012.023.07.081a.515.515,0,0,1,.151.243.143.143,0,0,0,.023.035h.023l.046-.023a.278.278,0,0,1,.081-.22.63.63,0,0,0,.139-.278,8.236,8.236,0,0,0,1.623-.394C207.956,190.8,207.968,190.791,207.968,190.779Zm-2.168.2a.414.414,0,0,1,.139-.185.215.215,0,0,1,.081-.023s.035,0,.046.012a.226.226,0,0,1,.151.139l.012.058a.371.371,0,0,1,.012.081.684.684,0,0,1-.127.348.471.471,0,0,0-.058.1.578.578,0,0,0-.128-.151l-.058-.058v-.012a1,1,0,0,1-.058-.139A.428.428,0,0,1,205.8,190.976Zm1.53-.626c.128-.035.243-.081.371-.128a.4.4,0,0,1,.127-.023.69.69,0,0,1,.07.058l.012.012.046.093a1.146,1.146,0,0,1-.023.209.525.525,0,0,0-.012.093l-.012.046a.036.036,0,0,0-.012.023,6.2,6.2,0,0,1-.985.267q-.261.052-.556.1v-.012c0-.035-.012-.081-.012-.128a.117.117,0,0,1-.012-.035.347.347,0,0,0-.22-.22h-.023a.116.116,0,0,0-.046-.012h-.058s-.07.023-.093.035l-.023.012a.368.368,0,0,0-.162.255.566.566,0,0,0,.012.185v.012c-.232.023-.464.046-.684.058a6.593,6.593,0,0,1-.835-.012.3.3,0,0,1-.139-.058s-.058-.046-.081-.07l-.012-.012a.165.165,0,0,0-.023-.046.785.785,0,0,0-.07-.1.112.112,0,0,1,0-.093.281.281,0,0,1,.22-.128s.151,0,.29.012a1.632,1.632,0,0,0,.243.012h.591c.07,0,.139-.012.209-.012.174-.012.348-.023.545-.046A8.994,8.994,0,0,0,207.331,190.35Zm-.128-.058c-.128.046-.255.081-.383.116l-.545-.811.371-1.263Zm-.591-2.121-.394,1.333-.51-.765-.046-.023q-.035.017-.035.035c-.151.406-.243.684-.29.823-.1-.128-.313-.429-.556-.788l.243-1.217.487.649a.17.17,0,0,0,.046.023.051.051,0,0,0,.035-.012l.3-.777Zm2.759,1.866c-.07-.07-.151-.128-.232-.209l-.035-.035-.44-10.606a6.894,6.894,0,0,1-.7.649l.383,9.3-.3-.278h-.012l-.046-.046-.371-8.717c-.162.116-.336.243-.545.371l.325,7.824c-.1-.093-.209-.185-.3-.278l-.046-.035-.3-7.326c-.139.07-.29.151-.44.209,0,0-.023-.023-.035-.023a5.023,5.023,0,0,1-2.9-.823c-.023-.012-.023-.023-.023-.023s-.058-.012-.07,0a.142.142,0,0,1-.035.023,4.967,4.967,0,0,1-2.886.823l-.035.023c-.162-.07-.3-.139-.44-.209l-.3,7.326-.046.035c-.1.093-.209.185-.3.278l.325-7.824a3.909,3.909,0,0,1-.533-.371l-.371,8.717-.046.046H198.6l-.3.278.383-9.3a6.893,6.893,0,0,1-.7-.649l-.44,10.606-.046.035c-.07.07-.151.139-.232.209l.464-11.058a4.467,4.467,0,0,0-.707.348l.012-.081c.012-.371.232-.927.638-1.008a1.769,1.769,0,0,1,.348-.035,3.679,3.679,0,0,1,1.739.6c.139.07.278.139.406.209a4.217,4.217,0,0,0,1.368.255,1.3,1.3,0,0,1-.209.232.071.071,0,0,0-.012.081.087.087,0,0,0,.035.035h.035a.634.634,0,0,1,.139-.023,1.011,1.011,0,0,0,.684-.267c-.023.151-.058.325-.058.383a.12.12,0,0,0,.012.046l.035.023.035-.012a1.552,1.552,0,0,0,.6-.464l.012-.012.023.012a1.992,1.992,0,0,0,.383.383l.046.023.012.012a.2.2,0,0,0,.058-.023l.012-.023a4.693,4.693,0,0,0,.325-.348,1.59,1.59,0,0,0,.869.406l.07-.07a.947.947,0,0,0-.058-.255,1.367,1.367,0,0,0,.637.139.064.064,0,0,0,.058-.035s.012-.046-.012-.07l-.012-.012c-.035-.035-.07-.093-.116-.151.267-.023.533-.058.765-.093a3.144,3.144,0,0,0,.568-.162c.128-.07.255-.127.406-.209a3.679,3.679,0,0,1,1.739-.6,1.576,1.576,0,0,1,.336.035c.417.07.638.638.649,1.008l.012.081a4.464,4.464,0,0,0-.707-.348Z" transform="translate(-196.4 -174.86)" fill="#bf920d"/>
        <path id="XMLID_4378_" d="M216.846,308.669a1.5,1.5,0,0,1,.44.162l.023.012a.051.051,0,0,0,.035-.012.138.138,0,0,0,.023-.07,1.689,1.689,0,0,0-.5-.185c-.035-.012-.07.012-.07.035C216.823,308.611,216.823,308.658,216.846,308.669Z" transform="translate(-214.435 -293.074)" fill="#bf920d"/>
        <path id="XMLID_4377_" d="M223.835,310.768a3.93,3.93,0,0,1,.5.127l.023.012.046-.023s0-.058-.023-.07a2.915,2.915,0,0,0-.51-.139.089.089,0,0,0-.07.012C223.8,310.733,223.812,310.756,223.835,310.768Z" transform="translate(-220.624 -294.93)" fill="#bf920d"/>
        <path id="XMLID_4376_" d="M236.158,313.116a.14.14,0,0,1,.058-.012,1.545,1.545,0,0,1,.464,0l.012.012.046-.035a.057.057,0,0,0-.012-.035.036.036,0,0,0-.023-.012,1.168,1.168,0,0,0-.2-.035,2.037,2.037,0,0,0-.313.023.09.09,0,0,1-.035.012s-.058.023-.058.046Z" transform="translate(-231.498 -296.988)" fill="#bf920d"/>
        <path id="XMLID_4375_" d="M243.558,313.251h0a5.176,5.176,0,0,1,.522-.046l.046-.058a.081.081,0,0,0-.023-.046,4.537,4.537,0,0,0-.533.046l-.023.012-.035.023-.012.035Z" transform="translate(-238.041 -297.076)" fill="#bf920d"/>
        <path id="XMLID_4374_" d="M290.277,308.766a.057.057,0,0,0,.035-.012,1.618,1.618,0,0,1,.44-.162l.046-.023c-.012-.058-.035-.07-.035-.07a1.524,1.524,0,0,0-.51.185c-.023.012-.023.046-.012.07A.043.043,0,0,0,290.277,308.766Z" transform="translate(-279.358 -293.009)" fill="#bf920d"/>
        <path id="XMLID_4373_" d="M283.046,310.932l.023-.012a1.854,1.854,0,0,1,.5-.128.064.064,0,0,0,.035-.058l-.058-.035a2.388,2.388,0,0,0-.522.151l-.023.07C283,310.909,283.035,310.932,283.046,310.932Z" transform="translate(-272.962 -294.955)" fill="#bf920d"/>
        <path id="XMLID_4372_" d="M270.98,312.935l-.035-.012a2,2,0,0,0-.3-.023h-.012c-.07.012-.128.012-.2.023l-.023.023a.036.036,0,0,0-.012.023s.023.058.046.058l.012-.012a1.542,1.542,0,0,1,.464,0,.237.237,0,0,0,.058.012l.046-.058C271.037,312.946,271.014,312.935,270.98,312.935Z" transform="translate(-261.822 -296.9)" fill="#bf920d"/>
        <path id="XMLID_4371_" d="M263.68,313.158a.051.051,0,0,0-.035-.012,4.315,4.315,0,0,0-.5-.046.05.05,0,0,0-.046.046s.023.058.046.058a4.494,4.494,0,0,1,.51.046h.012l.046-.035-.012-.035Z" transform="translate(-255.369 -297.076)" fill="#bf920d"/>
        <path id="XMLID_4367_" d="M237.913,222.64l-.093-.012c-.058,0-.1-.012-.151-.012a5.468,5.468,0,0,1-1.414-.278c-.081-.023-.151-.046-.22-.07a4.114,4.114,0,0,1-.753-.371.036.036,0,0,0-.023-.012s-.058-.023-.07-.012-.023.023-.035.023a3.811,3.811,0,0,1-.962.44,5.372,5.372,0,0,1-1.414.278.564.564,0,0,1-.139.012c-.035,0-.07.012-.1.012a.08.08,0,0,0-.035.058,8.274,8.274,0,0,0,.093,1.078,6.972,6.972,0,0,0,1.588,3.443.17.17,0,0,1,.023.035l.336.371c.093.093.185.185.278.267.128.116.255.243.394.348l.023.012.035-.012c.139-.1.267-.232.394-.336.209-.2.406-.417.591-.626a.459.459,0,0,1,.035-.046,6.825,6.825,0,0,0,1.229-2.086,6.654,6.654,0,0,0,.348-1.356,8.085,8.085,0,0,0,.1-1.078C237.959,222.663,237.936,222.64,237.913,222.64Zm-1.669,4.463-.035.046-.023.023c-.151.174-.29.325-.441.475a1.045,1.045,0,0,1-.116.1c-.127.127-.267.243-.406.359-.128-.116-.278-.232-.394-.348-.081-.07-.151-.151-.232-.232-.116-.116-.22-.232-.325-.348l-.035-.035a.216.216,0,0,1-.035-.046v-4.66a.011.011,0,0,0,.012-.012,4.71,4.71,0,0,0,.939-.417.689.689,0,0,1,.07-.046.692.692,0,0,0,.07.046,4.184,4.184,0,0,0,.719.348,1.612,1.612,0,0,0,.22.07l.023.012v4.66Z" transform="translate(-228.316 -216.423)" fill="#bf920d"/>
      </g>
    </g>
    <text id="Official_Host_Country_Website_" data-name="Official Host 
Country Website " transform="translate(-71 207.854)" fill="#19202f" font-size="16" font-family="Arial-BoldMT, Arial" font-weight="700"><tspan x="0" y="0">Official Host </tspan><tspan x="0" y="20">Country Website </tspan></text>
  </g>
</svg>
