<svg version="1.2" xmlns="http://www.w3.org/2000/svg" viewBox="0 0 329 173" width="329" height="173"><style>.a{fill:#bc8b2c}.b{fill:#68b876}.c{fill:#1177c1}</style><path class="a" d="m105.7 65.4l30.1-30.1c0.5-0.6 1.4-0.6 2 0 0.5 0.5 0.5 1.4 0 2l-30.1 30.1c-0.6 0.5-1.5 0.5-2 0-0.6-0.6-0.6-1.5 0-2z"/><path class="a" d="m110.5 71l49.1-28.3c0.7-0.4 1.5-0.2 1.9 0.5 0.4 0.7 0.2 1.5-0.5 1.9l-49.1 28.4c-0.7 0.3-1.5 0.1-1.9-0.6-0.4-0.6-0.2-1.5 0.5-1.9z"/><path class="a" d="m58.9 80.4l-41.1-11c-0.7-0.2-1.2-1-1-1.7 0.2-0.8 1-1.2 1.8-1l41 11c0.8 0.2 1.2 1 1 1.7-0.2 0.8-0.9 1.2-1.7 1z"/><path class="a" d="m121.2 85h50.5c0.8 0 1.4 0.6 1.4 1.4 0 0.8-0.6 1.4-1.4 1.4h-40.7q-4.8-1.6-9.8-2.8z"/><path class="a" d="m99.6 61.1l28.3-49.1c0.4-0.6 1.3-0.9 2-0.5 0.7 0.4 0.9 1.3 0.5 2l-28.4 49.1c-0.3 0.6-1.2 0.9-1.9 0.5-0.7-0.4-0.9-1.3-0.5-2z"/><path class="a" d="m112.7 79.4c-0.2-0.7 0.2-1.5 1-1.7l41-11c0.8-0.2 1.6 0.2 1.8 1 0.2 0.7-0.3 1.5-1 1.7l-41.1 11c-0.8 0.2-1.5-0.2-1.7-1z"/><path class="a" d="m85.2 58.1v-56.7c0-0.8 0.7-1.5 1.4-1.5 0.8 0 1.5 0.7 1.5 1.5v56.7c0 0.7-0.7 1.4-1.5 1.4-0.7 0-1.4-0.7-1.4-1.4z"/><path class="a" d="m11.8 43.2c0.4-0.7 1.2-0.9 1.9-0.5l49.1 28.3c0.7 0.4 0.9 1.3 0.5 1.9-0.4 0.7-1.2 0.9-1.9 0.6l-49.1-28.4c-0.7-0.4-0.9-1.2-0.5-1.9z"/><path class="a" d="m92.6 58.7l11-41.1c0.2-0.8 1-1.2 1.8-1 0.7 0.2 1.2 1 1 1.7l-11 41.1c-0.3 0.7-1 1.2-1.8 1-0.7-0.2-1.2-1-1-1.7z"/><path class="a" d="m0.2 86.4c0-0.8 0.6-1.4 1.4-1.4h50.5q-5 1.2-9.8 2.8h-40.7c-0.8 0-1.4-0.6-1.4-1.4z"/><path class="a" d="m35.5 37.3c-0.5-0.6-0.5-1.5 0-2 0.6-0.6 1.5-0.6 2 0l30.1 30.1c0.6 0.5 0.6 1.4 0 2-0.5 0.5-1.4 0.5-2 0z"/><path class="a" d="m42.9 13.5c-0.4-0.7-0.2-1.6 0.5-2 0.7-0.4 1.6-0.1 2 0.5l28.3 49.1c0.4 0.7 0.2 1.6-0.5 2-0.7 0.4-1.6 0.1-2-0.5z"/><path class="a" d="m66.9 18.3c-0.2-0.7 0.3-1.5 1-1.7 0.8-0.2 1.6 0.2 1.8 1l11 41.1c0.2 0.7-0.3 1.5-1 1.7-0.8 0.2-1.6-0.3-1.8-1z"/><path class="b" d="m158.5 108.6c-0.5 0.8-1.6 1-2.4 0.5-20.2-12.4-44-19.6-69.5-19.6-25.4 0-49.2 7.2-69.4 19.6-0.8 0.5-1.9 0.3-2.4-0.5-0.5-0.8-0.2-1.9 0.6-2.4 20.7-12.7 45.1-20.1 71.2-20.1 26.2 0 50.6 7.4 71.3 20.1 0.8 0.5 1.1 1.6 0.6 2.4z"/><path class="c" d="m85.2 114.7c0-0.7 0.7-1.4 1.4-1.4 0.8 0 1.5 0.7 1.5 1.4v47.3c0 1.1 0.4 2.2 1.2 3l1.2 1.2c0.5 0.5 0.5 1.4 0 2-0.6 0.5-1.5 0.5-2 0l-1.2-1.2c-1.3-1.3-2.1-3.1-2.1-5v-47.3z"/><path class="c" d="m85.6 156.3c0.6-0.6 1.5-0.6 2 0l5.5 5.4c1.3 1.3 2 3.1 2 5v4.7c0 0.8-0.6 1.5-1.4 1.5-0.8 0-1.4-0.7-1.4-1.5v-4.7c0-1.1-0.4-2.2-1.2-3l-5.5-5.4c-0.5-0.6-0.5-1.5 0-2z"/><path class="c" d="m92.6 114.1c-0.2-0.7 0.3-1.5 1-1.7 0.8-0.2 1.5 0.3 1.8 1l8.5 32c0.3 1.1 1 2 2 2.6l1.4 0.8c0.7 0.4 0.9 1.2 0.6 1.9-0.4 0.7-1.3 0.9-2 0.5l-1.4-0.8c-1.6-0.9-2.8-2.5-3.3-4.3l-8.6-32z"/><path class="c" d="m100.1 140.5c0.4-0.7 1.2-1 1.9-0.6l6.7 3.9c1.6 0.9 2.8 2.5 3.3 4.3l1.2 4.6c0.2 0.7-0.2 1.5-1 1.7-0.8 0.2-1.5-0.3-1.7-1l-1.3-4.6c-0.3-1.1-1-2-1.9-2.6l-6.7-3.8c-0.7-0.4-0.9-1.3-0.5-1.9z"/><path class="c" d="m105.7 105.4c0.5-0.5 1.4-0.5 2 0l23.4 23.4c0.8 0.8 1.9 1.3 3 1.3h1.7c0.7 0 1.4 0.6 1.4 1.4 0 0.8-0.7 1.4-1.4 1.4h-1.7c-1.9 0-3.7-0.7-5-2.1l-23.4-23.4c-0.6-0.5-0.6-1.4 0-2z"/><path class="c" d="m125.3 126.5c0-0.8 0.7-1.4 1.4-1.4h7.7c1.9 0 3.7 0.7 5 2l3.4 3.4c0.5 0.6 0.5 1.4 0 2-0.6 0.6-1.5 0.6-2 0l-3.4-3.3c-0.8-0.8-1.9-1.3-3-1.3h-7.7c-0.7 0-1.4-0.6-1.4-1.4z"/><path class="c" d="m99.6 111.7c-0.4-0.7-0.2-1.6 0.5-2 0.7-0.4 1.6-0.1 1.9 0.5l23.7 41c0.5 0.9 1.5 1.7 2.6 1.9l1.6 0.5c0.7 0.2 1.2 1 1 1.7-0.2 0.8-1 1.2-1.8 1l-1.6-0.4c-1.8-0.5-3.3-1.7-4.3-3.3l-23.6-40.9z"/><path class="c" d="m120.7 147.4c0.2-0.7 1-1.2 1.7-1l7.5 2c1.8 0.5 3.3 1.7 4.3 3.3l2.3 4.1c0.4 0.7 0.2 1.5-0.5 1.9-0.7 0.4-1.5 0.2-1.9-0.5l-2.4-4.1c-0.6-1-1.5-1.7-2.6-2l-7.4-2c-0.7-0.2-1.2-0.9-1-1.7z"/><path class="c" d="m110 99.9c0.4-0.7 1.2-0.9 1.9-0.6l40.9 23.7c0.7 0.4 1.4 0.5 2.2 0.5q0.5 0 1.1-0.1l1.6-0.4c0.7-0.2 1.5 0.2 1.7 1 0.2 0.7-0.3 1.5-1 1.7l-1.6 0.4q-0.9 0.3-1.8 0.3c-1.3 0-2.5-0.3-3.6-1l-40.9-23.6c-0.7-0.4-0.9-1.3-0.5-1.9z"/><path class="c" d="m146.6 122.2c-0.2-0.8 0.3-1.5 1.1-1.7l7.4-2q0.9-0.3 1.8-0.3c1.2 0 2.5 0.4 3.5 1l4.1 2.4c0.7 0.3 1 1.2 0.6 1.9-0.4 0.7-1.3 0.9-2 0.5l-4.1-2.4c-0.6-0.3-1.4-0.5-2.1-0.5q-0.6 0-1.1 0.1l-7.4 2c-0.8 0.2-1.5-0.2-1.8-1z"/><path class="c" d="m77.9 113.4c0.2-0.7 1-1.2 1.8-1 0.7 0.2 1.2 1 1 1.7l-8.6 32c-0.5 1.8-1.7 3.4-3.3 4.3l-1.4 0.8c-0.7 0.4-1.6 0.2-2-0.5-0.4-0.7-0.1-1.5 0.6-1.9l1.4-0.8c1-0.6 1.7-1.5 2-2.6l8.5-32z"/><path class="c" d="m73.2 140.5c0.4 0.6 0.2 1.5-0.5 1.9l-6.7 3.8c-0.9 0.6-1.7 1.5-1.9 2.6l-1.3 4.6c-0.2 0.7-1 1.2-1.7 1-0.8-0.2-1.2-1-1-1.7l1.2-4.6c0.5-1.8 1.7-3.4 3.3-4.3l6.7-3.9c0.6-0.4 1.5-0.1 1.9 0.6z"/><path class="c" d="m67.6 105.4c0.6 0.6 0.6 1.5 0 2l-23.4 23.4c-1.3 1.4-3.1 2.1-5 2.1h-1.7c-0.7 0-1.4-0.6-1.4-1.4 0-0.8 0.7-1.4 1.4-1.4h1.7c1.1 0 2.2-0.5 3-1.3l23.4-23.4c0.6-0.5 1.5-0.5 2 0z"/><path class="c" d="m48 126.5c0 0.8-0.7 1.4-1.4 1.4h-7.7c-1.1 0-2.2 0.5-3 1.3l-3.4 3.3c-0.5 0.6-1.4 0.6-2 0-0.5-0.6-0.5-1.4 0-2l3.4-3.4c1.3-1.3 3.1-2 5-2h7.7c0.7 0 1.4 0.6 1.4 1.4z"/><path class="c" d="m71.2 110.2c0.4-0.6 1.3-0.9 2-0.5 0.7 0.4 0.9 1.3 0.5 2l-23.6 40.9c-1 1.6-2.5 2.8-4.3 3.3l-1.6 0.4c-0.8 0.2-1.6-0.2-1.8-1-0.2-0.7 0.3-1.5 1-1.7l1.6-0.5c1.1-0.2 2.1-1 2.6-1.9l23.6-41z"/><path class="c" d="m52.6 147.4c0.2 0.8-0.3 1.5-1 1.7l-7.4 2c-1.1 0.3-2.1 1-2.6 2l-2.4 4.1c-0.4 0.7-1.2 0.9-1.9 0.5-0.7-0.4-0.9-1.2-0.5-1.9l2.3-4.1c1-1.6 2.5-2.8 4.3-3.3l7.4-2c0.8-0.2 1.6 0.3 1.8 1z"/><path class="c" d="m63.3 99.9c0.4 0.6 0.2 1.5-0.5 1.9l-40.9 23.6c-1.1 0.7-2.3 1-3.6 1q-0.9 0-1.8-0.3l-1.6-0.4c-0.8-0.2-1.2-1-1-1.7 0.2-0.8 1-1.2 1.7-1l1.6 0.4q0.6 0.1 1.1 0.1c0.8 0 1.5-0.1 2.2-0.5l40.9-23.7c0.7-0.3 1.5-0.1 1.9 0.6z"/><path class="c" d="m26.6 122.2c-0.2 0.8-0.9 1.2-1.7 1l-7.4-2q-0.6-0.1-1.1-0.1c-0.7 0-1.5 0.2-2.1 0.5l-4.1 2.4c-0.7 0.4-1.6 0.2-2-0.5-0.4-0.7-0.1-1.6 0.5-1.9l4.2-2.4c1-0.6 2.3-1 3.5-1q0.9 0 1.8 0.3l7.4 2c0.8 0.2 1.2 0.9 1 1.7z"/><path class="a" d="m278.3 76.5c0-3.9 1.8-7.7 4.8-10.3 2.7-2.3 5.8-4 8.2-5.5 2.3-1.5 4-3.1 4-5.2 0-2.4-1.6-3.8-4-3.8-4 0-5.1 2.9-5.2 6.3h-7.1c-0.4-7.8 4.5-13 12.3-13 6.1 0 11.6 3.2 11.6 9.9 0 6-4.3 8.2-8.8 11-2.4 1.5-3.6 2.2-5.6 4.2h14.7v6.4z"/><path class="a" d="m304.9 45.4h22.7v6.1c-1.3 1.1-4.6 5.4-6.7 10.1-2.5 5.5-3.2 10.9-3.2 14.9h-8.2c0.2-3.6 1.3-9.5 4.1-14.9 2.2-4.8 5.3-8.6 6.3-9.2v-0.1h-15z"/><path class="c" d="m188.2 102.6c0 1.5 1.2 2 2.5 2 0.8 0 2.1-0.2 2.1-1.3 0-1.2-1.6-1.4-3.3-1.9-1.6-0.4-3.3-1.1-3.3-3.1 0-2.3 2.2-3.4 4.2-3.4 2.3 0 4.4 1 4.4 3.6h-2.3c-0.1-1.4-1.1-1.7-2.2-1.7-0.8 0-1.7 0.3-1.7 1.3 0 0.8 0.5 0.9 3.3 1.6 0.8 0.2 3.3 0.8 3.3 3.3 0 2-1.6 3.5-4.6 3.5-2.5 0-4.8-1.2-4.7-3.9z"/><path class="c" d="m196 95.2h2.5v4.2h4.5v-4.2h2.4v11.1h-2.4v-4.8h-4.5v4.8h-2.5z"/><path fill-rule="evenodd" class="c" d="m210.6 95.2h2.5l4.1 11.1h-2.5l-0.8-2.5h-4.2l-0.9 2.5h-2.4zm-0.3 6.8h2.9l-1.4-4.1z"/><path fill-rule="evenodd" class="c" d="m218.2 95.2h6c2 0 3.2 1.4 3.2 3 0 1.3-0.5 2.3-1.7 2.8 1.2 0.4 1.5 1.5 1.6 2.6 0.1 0.7 0 2.1 0.5 2.7h-2.5c-0.3-0.7-0.2-1.8-0.4-2.7-0.1-1.2-0.6-1.7-1.8-1.7h-2.4v4.4h-2.5zm2.5 5h2.6c1.1 0 1.7-0.5 1.7-1.6 0-1.1-0.6-1.5-1.7-1.5h-2.6z"/><path class="c" d="m228.8 95.2h3.5l2.5 7.6h0.1l2.4-7.6h3.5v11.1h-2.3v-7.9l-2.8 7.9h-1.8l-2.8-7.8v7.8h-2.3z"/><path class="c" d="m247.9 95.2h8.3v2h-5.9v2.4h5.4v1.9h-5.4v2.7h6v2.1h-8.4z"/><path class="c" d="m257.6 95.2h2.5v9h5.4v2.1h-7.9z"/><path class="c" d="m266 101.1h4.7v1.9h-4.7z"/><path class="c" d="m274.2 102.6c0 1.5 1.2 2 2.5 2 0.8 0 2.1-0.2 2.1-1.3 0-1.2-1.6-1.4-3.2-1.9-1.7-0.4-3.4-1.1-3.4-3.1 0-2.3 2.2-3.4 4.2-3.4 2.3 0 4.4 1 4.4 3.6h-2.3c-0.1-1.4-1.1-1.7-2.2-1.7-0.8 0-1.7 0.3-1.7 1.3 0 0.8 0.5 0.9 3.3 1.6 0.8 0.2 3.3 0.8 3.3 3.3 0 2-1.6 3.5-4.6 3.5-2.5 0-4.8-1.2-4.7-3.9z"/><path class="c" d="m282.3 95.2h2.5v4.2h4.5v-4.2h2.4v11.1h-2.4v-4.8h-4.5v4.8h-2.5z"/><path class="c" d="m293.3 95.2h8.3v2h-5.9v2.4h5.4v1.9h-5.4v2.7h6v2.1h-8.4z"/><path class="c" d="m303 95.2h2.5v11.1h-2.5z"/><path class="c" d="m307 95.2h2.4v4.6l4.4-4.6h3l-4.3 4.4 4.7 6.7h-3l-3.4-5-1.4 1.4v3.6h-2.4z"/><path class="c" d="m318.2 95.2h2.5v4.2h4.4v-4.2h2.5v11.1h-2.5v-4.8h-4.4v4.8h-2.5z"/><path class="a" d="m267 128.4c0-2.2 1-4.4 2.8-5.9 1.5-1.3 3.2-2.2 4.6-3.1 1.3-0.9 2.3-1.7 2.3-2.9 0-1.4-0.9-2.2-2.3-2.2-2.3 0-2.9 1.6-2.9 3.6h-4.1c-0.2-4.4 2.6-7.4 7-7.4 3.5 0 6.6 1.8 6.6 5.6 0 3.4-2.4 4.7-5 6.3-1.3 0.8-2.1 1.2-3.2 2.4h8.4v3.6z"/><path fill-rule="evenodd" class="a" d="m282.6 119.6c0-4.8 1.9-9.1 6.9-9.1 5.2 0 7.2 4.3 7.2 9.1 0 4.7-2 9-7.2 9-5 0-6.9-4.3-6.9-9zm10 0c0-2.4-0.1-5.6-2.9-5.6-2.8 0-2.9 3.2-2.9 5.6 0 2.3 0.1 5.5 2.9 5.5 2.8 0 2.9-3.2 2.9-5.5z"/><path class="a" d="m297.9 128.4c0.1-2.2 1.1-4.4 2.8-5.9 1.5-1.3 3.3-2.2 4.6-3.1 1.4-0.9 2.3-1.7 2.3-2.9 0-1.4-0.9-2.2-2.3-2.2-2.2 0-2.9 1.6-2.9 3.6h-4c-0.3-4.4 2.5-7.4 6.9-7.4 3.5 0 6.7 1.8 6.7 5.6 0 3.4-2.5 4.7-5.1 6.3-1.3 0.8-2 1.2-3.2 2.4h8.4v3.6z"/><path class="a" d="m313.4 128.4c0-2.2 1-4.4 2.8-5.9 1.5-1.3 3.2-2.2 4.6-3.1 1.3-0.9 2.3-1.7 2.3-2.9 0-1.4-0.9-2.2-2.3-2.2-2.3 0-2.9 1.6-2.9 3.6h-4.1c-0.2-4.4 2.6-7.4 7-7.4 3.5 0 6.6 1.8 6.6 5.6 0 3.4-2.4 4.7-5 6.3-1.4 0.8-2.1 1.2-3.2 2.4h8.4v3.6z"/><path class="a" d="m184.4 86.4c0-0.8 0.7-1.4 1.5-1.4h141.7c0.8 0 1.4 0.6 1.4 1.4 0 0.8-0.6 1.4-1.4 1.4h-141.7c-0.8 0-1.5-0.6-1.5-1.4z"/><path class="c" d="m185.9 110.9h13.6v3.5h-9.2v3h8.4v3.5h-8.4v3.3h9.5v3.8h-13.9z"/><path class="c" d="m217.1 128h-2.9l-0.3-1.9c-1.2 1.7-3.2 2.3-4.8 2.3-5.2 0-8.5-4-8.5-9 0-4.9 3.3-8.9 8.5-8.9 3.6 0 7.4 1.9 7.8 6.2h-4.5c-0.1-1.5-1.6-2.4-3.4-2.4-2.8 0-3.9 2.6-3.9 5.1 0 2.6 1.1 5.1 3.9 5.1 2.2 0 3.7-1 4-2.6h-3.1v-3.3h7.2z"/><path class="c" d="m227.1 121.6v6.4h-4.5v-6.4l-6.2-10.7h5l3.4 6.9 3.5-6.9h5z"/><path fill-rule="evenodd" class="c" d="m234.3 110.9h8.1c3.2 0 6.2 1.4 6.2 5.5 0 4.2-2.4 5.9-6.2 5.9h-3.7v5.7h-4.4zm4.4 8h3c1.4 0 2.4-0.6 2.4-2.2 0-1.6-1-2.2-2.4-2.2h-3z"/><path class="c" d="m264.2 114.7h-5.1v13.3h-4.5v-13.3h-5.1v-3.8h14.7z"/><path class="c" d="m208.5 55.4c-0.4-3.2-3.5-5.6-7-5.6-6.3 0-8.6 5.3-8.6 10.9 0 5.3 2.3 10.7 8.6 10.7 4.3 0 6.7-2.9 7.3-7.1h6.8c-0.7 7.9-6.2 13-14.1 13-9.8 0-15.6-7.4-15.6-16.6 0-9.4 5.8-16.8 15.6-16.8 7.1 0 13 4.1 13.8 11.5z"/><path fill-rule="evenodd" class="c" d="m250.6 44.6h14.4c8 0 11.1 5.1 11.1 10.3 0 5.2-3.1 10.2-11.1 10.2h-7.3v11.4h-7.1zm7.1 15.1h5.4c3.3 0 6.2-0.8 6.2-4.8 0-4.1-2.9-4.8-6.2-4.8h-5.4z"/><path class="c" d="m241.4 52.1q0.1 0 0.1 0c0 0.1-0.1 0.1-0.2 0.1 0 0-0.1-0.1-0.1-0.2 0 0 0-0.1-0.1-0.2 0-0.1 0 0 0 0.1 0 0 0.1 0.1 0.1 0.1 0 0 0 0.1-0.1 0.1 0 0-0.1-0.2-0.1-0.2q0 0 0-0.1c0 0 0 0 0 0q0-0.1 0.1-0.1 0 0 0 0 0 0 0.1 0c0 0 0 0-0.1-0.1 0 0 0.1 0 0.1 0q0 0 0 0.1 0 0 0 0 0 0 0 0 0 0 0 0 0 0 0 0 0 0 0 0 0 0 0 0 0 0 0 0 0 0 0 0 0.1-0.1 0.1 0c0 0 0 0 0 0-0.1 0-0.1 0.1-0.1 0.1q0.1 0 0.1 0 0 0 0 0 0 0 0.1 0z"/><path class="c" d="m240.6 53.3l0.3 0.8q-0.2 0-0.4 0.1 0 0 0 0c0 0-0.6-0.1-0.7-0.6 0-0.1 0-0.1 0.1-0.4q0 0 0 0c-0.8-0.8-0.8-0.8-0.9-1.5q0.1 0 0.2 0c0-0.3 0.5-0.3 0.5-0.3 0 0 0 0 0 0 0.3 0 0.7 0.5 0.7 0.5q0 0-0.1 0c-0.1 0-0.2 0-0.4-0.1q0 0.1 0 0.1 0 0-0.1 0 0 0 0 0.1 0.1 0.1 0.1 0.1 0 0-0.1 0-0.2-0.1-0.2 0 0 0 0 0 0 0 0 0c0.1 0.1 0.2 0.1 0.3 0.2 0 0 0 0.1 0 0.1q0 0 0 0c0 0 0.1 0.1 0.2 0.1q0 0 0 0 0 0 0 0 0 0 0 0 0 0 0 0c0 0 0 0 0.2 0.4 0.1-0.3 0.4 0.1 0.4 0.1 0.1 0.1 0 0.1-0.2 0.1q-0.1 0-0.1 0c0 0.1 0 0.1 0.2 0.2z"/><path fill-rule="evenodd" class="c" d="m249.5 60.6c0 9.2-7.4 16.6-16.6 16.6-9.2 0-16.7-7.4-16.7-16.6 0-9.2 7.5-16.7 16.7-16.7 9.2 0 16.6 7.5 16.6 16.7zm-1.6-2.3c-0.8-5.7-4.9-10.3-10.2-12.1q0 0 0 0 0 0-0.1 0 0-0.1 0-0.1-0.1 0-0.1 0 0 0-0.1 0 0 0 0 0 0 0 0 0 0 0 0 0 0 0 0 0 0 0 0 0c-0.1 0-0.1 0-0.2 0.1q0 0 0 0 0 0 0 0 0 0 0 0c0 0 0 0-0.2-0.1q0 0-0.1 0 0.1 0.1 0.1 0.1c-0.1 0-0.1 0-0.1 0-0.1 0-0.2 0.1-0.3 0.2 0 0.2 0 0.2 0 0.2-0.1-0.1-0.1-0.1-0.3-0.2q0 0 0 0 0-0.1 0.1-0.1c-0.1-0.1-0.1-0.1-0.5-0.1 0.1 0 0.1 0 0.5 0.6-0.2-0.1-0.2-0.1-0.3-0.1-0.2 0.2-0.2 0.2 0 0.4 0 0-0.1 0-0.6-0.1 0 0.1 0.2 0.1 0.3 0.2-0.2 0.3-0.6-0.3-0.6-0.3 0 0 0 0-0.5-0.4q0.1 0 0.1 0c0.6 0.4 1.2 0.3 1.1 0-0.1-0.1-0.8-0.5-1.2-0.5q-0.1 0-0.1 0 0 0 0 0c-0.1 0-0.1 0-0.1 0q0 0 0 0 0-0.1 0-0.1c-0.1 0.1-0.2 0-0.3 0.1 0-0.1 0-0.1-0.1-0.1 0.1-0.1 0.1-0.1 0.2-0.1q-0.1 0-0.1 0c0 0-0.1-0.1-0.2-0.1q0 0.1 0 0.1 0 0-0.1 0 0.1-0.1 0.1-0.1-0.1 0-0.1 0c-0.1 0.1-0.1 0.1-0.1 0.1q0 0 0-0.1c-0.1 0-0.1 0.1-0.2 0.2 0-0.1 0.1-0.2 0.1-0.2q-0.1 0-0.2 0 0 0 0 0.1 0 0 0 0 0 0 0 0 0 0 0 0-0.1 0.1-0.1 0.1 0 0-0.1-0.1 0 0.1 0 0.1 0 0-0.1 0 0 0 0 0 0.1 0 0.1 0-0.1 0-0.1 0-0.1 0-0.1 0 0 0.1 0 0.1 0 0 0 0-0.1 0-0.1 0 0 0 0 0 0 0-0.1-0.1 0 0 0 0 0 0 0 0.1 0 0 0 0-0.1 0-0.1 0 0 0 0 0 0 0 0 0c0.1 0 0.1 0 0.1 0q0 0 0 0 0 0 0 0.1-0.1 0-0.1-0.1 0 0.1-0.1 0.1c0 0.1 0 0.1-0.1 0.1q0 0 0.1 0.1-0.1 0-0.1 0 0 0 0 0 0 0 0 0-0.1 0-0.1 0 0 0 0 0.1c-0.1 0.1-0.3 0.2-0.4 0.4q0 0-0.1 0 0 0.1 0 0.2 0-0.1 0-0.1-0.1 0.1-0.1 0.1c0 0 0 0-0.1 0.2 0 0 0 0-0.2 0.1q0 0.1 0 0.1 0 0-0.1 0 0 0 0 0-0.1 0-0.1 0 0 0 0 0 0 0 0 0c0 0-0.1 0-0.1 0.1q0 0 0 0 0 0 0 0 0 0 0 0 0 0 0 0-0.1 0-0.1 0 0 0-0.1 0.1 0 0 0 0c0 0 0 0-0.1 0.1q0 0 0 0-0.1 0-0.1 0.1 0-0.1-0.1-0.1 0 0.1 0 0.1 0 0 0 0 0 0 0 0 0 0 0 0 0 0 0 0 0 0 0 0 0 0 0 0 0 0 0 0 0 0-0.1 0.1 0 0 0 0.1c0.1 0 0.3-0.1 0.3-0.1q0.1 0.1 0.1 0.1-0.1 0-0.1 0c-0.1 0-0.1 0-0.2 0q0 0 0 0 0 0 0 0 0 0 0 0 0 0 0 0 0 0 0 0 0 0 0 0-0.1 0-0.1 0 0 0.1 0 0.1 0 0 0 0c0 0.1 0 0.1 0 0.2 0.1-0.1 0.1-0.1 0.2-0.2q0 0.1 0 0.1 0 0 0 0 0 0 0 0 0 0 0 0 0 0 0 0 0 0 0 0 0 0 0 0-0.1 0-0.2 0.1 0.1 0 0.1 0c-0.2 0.2-0.2 0.2-0.2 0.2 0 0 0 0 0.2-0.1q0 0 0 0.1-0.1 0-0.1 0.1c0 0.2 0.3 0.2 0.3 0.2 0.2-0.1 0.3-0.3 0.5-0.3q0-0.1 0-0.1c0.1 0 0.1 0.1 0.1 0.1 0 0.1 0 0.1 0 0.1q0 0.1 0.1 0.1c0 0 0.2 0.4 0.2 0.4 0 0 0 0-0.1 0.1 0.1 0.1 0.1 0.1 0.1 0.2 0.1 0.1 0.2 0 0.2 0 0.1-0.2 0.1-0.2 0.4-0.2 0-0.1 0-0.3 0.1-0.5 0 0 0 0 0.2-0.2q0 0 0 0 0.1-0.1 0.2-0.2 0 0 0 0c-0.2-0.2-0.2-0.2-0.3-0.2 0 0 0 0 0-0.2 0-0.1 0.1-0.3 0.1-0.3 0.1-0.1 0.2-0.2 0.2-0.2q0.1 0 0.1 0 0 0 0 0 0 0 0 0 0 0 0 0 0 0 0 0 0 0 0 0 0 0 0 0 0 0 0 0c0.1-0.1 0.1-0.2 0.3-0.2q-0.1-0.1-0.1-0.1c0-0.1 0.1-0.2 0.1-0.3 0.1 0 0.6 0.1 0.5 0.3q0 0-0.1 0c-0.1 0.2-0.4 0.2-0.5 0.5 0 0 0 0.1 0.1 0.3-0.1 0.2 0.2 0.2 0.3 0.3q0 0 0 0 0 0 0 0c0 0 0 0 0.5-0.1q0 0 0 0 0 0 0 0 0 0 0 0c0.1 0 0.4 0 0.4 0q0-0.1 0-0.1 0 0 0 0 0 0 0 0 0 0.1 0 0.1c0.1 0.1 0.2 0.1 0.3 0.1-0.4 0.1-0.4 0.1-0.4 0.2-0.7 0-0.7 0-0.7 0.1 0.1 0.2 0.1 0.2 0.2 0.1 0 0.1 0 0.3 0 0.4-0.2 0-0.3-0.3-0.5-0.1 0 0 0 0 0 0.6 0 0-0.5 0.2-0.6 0 0 0-0.8 0.3-0.8 0.3-0.3-0.1-0.3-0.1-0.6 0q0-0.1-0.1-0.1c-0.1 0-0.1 0-0.1-0.1q-0.1 0-0.1-0.1 0.1 0 0.1-0.1 0 0 0 0.1 0.1 0 0.1 0 0 0 0 0 0 0 0 0 0 0 0 0 0 0 0 0 0 0 0 0 0.1 0 0.1 0 0 0 0 0 0-0.1 0-0.1 0 0 0 0-0.1 0-0.1 0-0.1 0-0.1 0 0 0 0 0 0 0 0 0 0.1-0.1 0.2-0.2 0-0.1-0.1 0 0-0.1 0-0.1c0.1-0.2 0.1-0.2 0.1-0.2 0 0-0.7 0.1-0.5 0.5q0.1 0 0.1 0c0 0.1 0 0.2 0 0.3q0 0 0 0 0 0 0 0.1c-0.1 0.1-0.1 0.1-0.1 0.1-0.2 0-0.2 0-0.3 0q0.1 0.1 0.1 0.1c-0.4 0-0.4 0-0.4 0 0 0.1 0 0.1 0 0.2q-0.1 0-0.1 0 0-0.1 0-0.1 0 0 0 0c-0.2 0.3-0.2 0.3-0.2 0.3q0 0 0.1 0c0 0-0.1 0-0.1 0q0 0.1 0 0.1 0 0-0.1 0 0 0 0-0.1c-0.2 0.1-0.3 0.3-0.5 0.4-0.1 0.1-0.1 0.1-0.2 0.1q0 0 0.1 0.1c-0.2 0-0.2 0-0.4 0q0 0 0-0.1-0.1 0-0.1 0c0 0.1 0 0.1 0 0.3-0.2 0-0.4 0-0.6 0q0 0.1-0.1 0.2 0.1 0 0.1 0 0 0 0 0 0 0 0 0c0.2 0 0.2 0 0.4 0.2 0 0.1 0 0.1 0.2 0.2q0 0.1 0 0.2c-0.1 0.2-0.1 0.4-0.3 0.6-0.1 0.1-0.3 0-0.5 0q0 0 0 0 0 0 0 0 0 0 0 0 0 0 0 0 0 0 0 0 0 0 0 0 0 0 0 0 0 0 0 0c-0.7-0.1-0.7-0.1-1 0-0.2 0.6-0.1 1.1-0.2 1.6 0.3 0.1 0.3 0.1 0.6 0.3 0.4-0.1 0.7-0.3 1.1-0.4 0.1-0.2 0.1-0.2 0.3-0.3-0.1-0.1 0.8-1.2 0.8-1.2 0.2-0.1 0.4 0.1 0.6 0 0.2-0.1 0.4-0.3 0.6-0.3 0 0 0.1 0 0.2 0.1l1.3 1.1c0.2 0.1 0 0.3 0 0.5 0.2-0.1 0.3-0.2 0.4-0.3q-0.1-0.1-0.2-0.3 0.2-0.2 0.4 0 0 0 0.1 0c-0.2-0.2-0.5-0.2-0.6-0.5-0.7-0.1-0.9-0.8-0.7-0.9q0.1-0.1 0.1-0.1c0 0.1 0.1 0.2 0.1 0.2q0.1 0 0.2 0c0.2 0.2 0.5 0.3 0.6 0.6 0.6 0.1 0.5 0.8 0.9 1q0 0 0 0.1c0.1 0.1 0.3 0 0.5 0.1-0.5 0.1-0.5 0.1-0.5 0.1 0.2 0.1 0.2 0.1 0.2 0.2q0 0 0 0 0.1 0 0.1 0.1 0.1 0 0.1-0.1 0 0.1 0.1 0.1 0 0 0-0.1 0 0-0.1-0.1 0.1 0 0.2 0 0 0-0.1-0.1 0 0 0.1-0.1 0 0 0 0.1 0.1-0.1 0.1-0.1c0 0-0.2-0.1-0.3-0.2q0-0.1 0.1-0.2c-0.2-0.1-0.1-0.2-0.1-0.3 0.1 0.2 0.1 0.2 0.3 0.1q0 0-0.1 0c0.2-0.2 0.4-0.2 0.6-0.1q0 0 0 0 0 0 0 0 0 0 0 0 0 0 0 0 0 0 0 0 0 0 0 0 0 0 0.1 0-0.1 0.1-0.1 0.2c0.2-0.2 0.4-0.2 0.6-0.3-0.3-0.2-0.3-0.2-0.4-0.4 0.2-0.2 0.2-0.2 0.2-0.2 0-0.2 0.2-0.4 0.2-0.6 0 0 0.3-0.3 0.4-0.3 0.1 0.2 0.1 0.2 0.4 0.2q-0.1 0-0.1 0.1c0 0.1 0.1 0.1 0.2 0.3q0 0 0 0c0.4-0.2 0.4-0.2 0.5-0.2q0 0 0-0.1c-0.3 0-0.3 0-0.4-0.1q0 0 0.1 0 0 0 0-0.1c0.8-0.3 0.8-0.3 0.8-0.3-0.1 0.2-0.1 0.2-0.2 0.2q0 0.1 0.1 0.1c-0.1 0.1-0.2 0.2-0.3 0.2 0.1 0.7 1.1 0.2 1.2 0.9 0 0.3-0.8 0.4-1.1 0.2-0.2-0.2-0.2-0.2-1.6 0.1q0.1 0 0.1 0.1c-0.2 0.1-0.5 0-0.7 0.2q0 0.1 0 0.1 0.1 0 0.1 0c0.1 0.1 0.1 0.1 0.1 0.3q-0.1 0-0.1 0 0 0-0.1 0c0.1 0.1 0.1 0.1 0.4 0.4q0 0 0.1 0 0 0-0.1 0c1 0.2 1.3 0.2 1.8 0 0.1 0 0.2 1.5-0.5 1.5 0 0 0 0 0 0q0 0 0 0 0 0 0 0 0 0 0 0 0 0 0 0 0 0 0 0c-0.4-0.1-0.8 0.2-1.2 0-0.4-0.1-0.9 0.1-1.2-0.3-0.2-0.2-0.8-0.1-0.7 0.3 0 0.3-0.2 0.3-0.3 0.3 0 0-0.8-0.3-0.9-0.5-0.4-0.2-0.9-0.2-1.3-0.4 0.3-0.5 0.3-0.5 0.2-0.6q0-0.1 0-0.1 0.1-0.1 0.1-0.1-0.1 0-0.1 0c-0.1-0.1-0.1-0.1-0.7 0q0-0.1 0-0.1 0 0-0.1 0 0 0 0 0 0 0 0 0 0 0 0 0c-2.1 0.5-2.1 0.5-2.9 0.4-0.1 0.1-0.2 0.3-0.3 0.4-0.1 0.2-0.6 0.2-0.6 0.6l-0.3 0.7c-0.1 0.1-0.1 0.1-0.3 0.3-1.2 0.9-1.3 1.8-1.4 1.9 0.2 0.2 0.2 0.2 0.1 0.5 0.3 0.6-0.7 2 0.2 2 0 0 0 0 0.5 0.7 0.3 0.6 1.3 1.2 1.3 1.2 0.3 0.2 0.5-0.2 0.8-0.2 0.9 0 0.9 0 1-0.1 0 0 1-0.2 1-0.2 0.3 0 0.4 0.3 0.4 0.3 0 0.1 0 0.1 0.2 0.2 0.2 0 0.4 0 0.6-0.1 0.1 0.1 0.1 0.2 0.2 0.2 0.2 0.5-0.1 1.2-0.1 1.2 0 0.6 0.6 0.7 0.8 1.1 0.2 0.4 0.2 0.8 0.4 1.2q0 0 0.1 0c0 0.1 0 0.1-0.4 1.3-0.2 0.4 0 0.6 0.4 1.2 0.1 0.1 0.2 0.3 0.2 0.3 0.2 0.4 0.1 0.8 0.3 1.1 0.6 0.8 0.6 0.8 0.6 1q0 0 0 0.1 0 0 0 0c0 0.1 0.1 0.2 0.1 0.3 1.7-0.1 1.7-0.1 2-0.4 0.3-0.2 0.4-0.3 0.4-0.4 0.6-0.6 0.6-0.6 0.6-0.8 0.1-0.4 0.6-0.3 0.6-0.6 0-0.3-0.2-0.6 0-0.9 0.3-0.5 0.9-0.5 1.2-0.9 0.5-0.4 0.4-1.3 0.4-1.3 0-0.1-0.6-0.6 0-1.7 0.3-0.6 1-1 1.4-1.5 0.5-0.5 0.5-0.5 1.1-1.8q0 0 0 0 0 0 0 0c0.1-0.2 0.1-0.5 0.1-0.7q0 0 0 0c-0.5 0.1-0.9 0.4-1.4 0.4-0.2 0-0.2-0.3-0.4-0.3q0-0.1 0.1-0.2c0-0.5-0.6-0.5-0.8-0.8q-0.1 0-0.1 0c-1.1-2-1.1-2.3-1.1-2.3 0 0-0.8-1.5-0.8-1.5 0.1 0.1 0.2 0.4 0.4 0.5q0 0 0.1 0c0-0.1 0-0.1 0-0.4 0 0.1 0.1 0.1 0 0.3 0.1 0 0.1 0 0.7 1q0.1 0 0.1 0 0 0 0 0 0 0 0 0 0 0 0 0 0 0 0 0 0 0 0 0 0 0 0 0 0 0 0 0c0 0 0.1 0.1 0.2 0.2l0.7 1.2c0 0.1 0.6 1.7 0.7 1.7 0.2 0.1 1.7-0.8 1.7-0.8 0.1-0.1 0.1-0.1 0.1-0.2q0.1-0.1 0.2-0.1c0.2-0.1 0.2-0.1 0.3-0.1q0 0 0.1 0 0 0 0 0c0.1-0.1 0-0.2 0.1-0.2 0-0.1 0.2-0.1 0.2-0.2 0-0.1 0-0.1 0.1-0.2 0.2 0 0-0.3 0.2-0.4q0 0 0 0c0 0 0.2-0.3 0.2-0.5q0 0 0 0l-0.3-0.3c0-0.1-0.1-0.1-0.2-0.1-0.1 0-0.2-0.2-0.2-0.2-0.1-0.1-0.1-0.3-0.1-0.4q0 0 0 0c0 0-0.2 0.2-0.2 0.3-0.2 0.3-0.2 0.3-0.2 0.3q-0.1 0-0.1 0c-0.1 0-0.1-0.1-0.2 0-0.1 0-0.1 0-0.1 0-0.2-0.1-0.1-0.4-0.2-0.5-0.1 0.1-0.1 0.1-0.1 0.3-0.3-0.3-0.5-0.8-0.8-1.2q0.1 0 0.1-0.1 0 0 0 0 0 0 0.1-0.1 0 0 0 0 0.1 0 0.1 0 0.1 0 0.1 0 0.4 0.6 0.5 0.6c0.2 0 0.3 0.3 0.5 0.3 0.2 0 0.3-0.2 0.5-0.1q0.1 0 0.2 0.2c0 0.1 0 0.1 0.5 0.2 0.3 0.1 0.6-0.1 0.9 0q0 0 0 0c0.5 0 0.5 0 0.6 0.4 0.2 0 0.3 0.3 0.5 0.2q0 0 0 0c0 0.1-0.1 0.2-0.2 0.2 0 0.1 0.3 0.5 0.5 0.3 0.1 0 0.1-0.1 0-0.3q0.1 0 0.1 0 0 0 0 0c0 0.1 0.1 1 0.4 1.8 0.2 0.7 0.4 1.2 0.5 1.7q0.1 0 0.2 0-0.1 0-0.2 0c0 0 0 0.2 0.1 0.2 0 0 0 0 0 0l0.1-0.1q0 0 0 0 0-0.1 0-0.1 0 0 0 0c0.1-0.1 0.1-0.1 0.3-0.9 0-0.3-0.2-0.6 0-1q0 0.1 0.1 0.1c0.2-0.6 0.6-1.1 0.7-1.8q0.1 0.1 0.1 0.2 0-0.1 0.1-0.1c0.1 0 0.1 0 0.1-0.1 0 0 0-0.1 0-0.2 0.1 0.1 0.2 0.1 0.4 0.7zm-14.5-12.5q0 0 0 0 0 0 0 0 0 0 0 0 0 0 0 0 0 0 0 0zm-0.2 0c0 0 0.1 0 0.1 0q0 0 0 0h0.1q0 0 0 0c0 0-0.1 0-0.1 0q0-0.1 0 0 0 0 0 0 0 0 0 0-0.1 0-0.1 0zm-0.1 0.1q0 0 0 0 0 0 0 0 0 0 0 0 0 0 0 0-0.1 0 0 0zm-0.1 0c-0.1 0 0 0 0 0q0 0 0 0 0 0 0 0 0 0 0 0c0 0 0 0 0 0zm-0.4 0.2q0 0 0 0 0 0 0 0 0.1 0 0.1 0 0 0 0 0 0 0 0.1 0 0 0 0-0.1 0 0-0.1 0 0 0 0 0 0 0 0 0 0 0 0 0 0 0 0 0 0 0 0 0 0 0.1 0 0.1 0 0 0 0-0.1 0-0.1 0 0 0 0 0zm-0.2 0q0 0 0 0 0 0 0.1 0 0 0 0 0 0 0 0 0 0 0 0 0c0 0 0 0 0 0q0 0 0 0 0 0 0 0 0 0 0 0 0 0-0.1 0 0 0 0 0zm0 0.1c0 0 0 0.1-0.1 0.1q0 0 0 0 0 0 0 0 0 0 0 0 0 0 0 0 0 0 0 0 0 0 0 0 0 0 0 0 0 0 0 0c0 0 0.1 0 0.1 0q0 0 0 0 0 0 0 0c0.1 0 0.1 0 0.1 0q0 0 0 0 0 0 0 0 0 0 0-0.1 0.1 0 0.1 0 0 0 0 0 0 0 0 0c0 0 0-0.1-0.1 0q0 0 0 0 0 0 0 0 0 0 0 0c0 0 0-0.1 0 0q0 0-0.1 0 0 0 0-0.1 0 0 0 0 0 0.1 0 0.1 0 0-0.1 0 0 0 0 0 0 0 0 0 0.1 0 0.1 0 0 0 0 0 0 0 0 0 0 0 0 0zm-1.5 1.5q0 0 0 0 0 0 0 0 0 0 0 0 0 0 0 0 0 0 0 0zm-0.3 0.3c0 0.1 0.1 0 0.1 0q0 0 0 0 0 0 0 0c-0.1 0-0.1 0-0.1 0zm0.1 0.3c0 0 0 0 0 0q0 0 0 0 0 0 0 0c0 0 0 0 0 0zm-1.1-0.1q0 0 0 0 0 0.1 0 0.1 0 0 0 0 0 0 0 0c0 0 0 0 0-0.1 0.1-0.1 0-0.1 0-0.1 0 0 0 0.1 0 0.1q0 0 0 0 0 0 0 0zm-0.4 0.4q0 0 0 0 0 0 0 0 0.1 0 0.1 0 0 0 0 0 0-0.1 0-0.1 0 0-0.1 0 0 0 0 0 0 0 0 0 0 0 0 0 0 0.1 0 0.1zm-0.3-0.8q0 0 0 0 0 0 0 0 0 0 0 0 0 0 0 0 0 0 0 0 0 0 0 0 0 0 0 0 0 0 0 0 0 0 0 0 0 0 0 0 0 0 0 0 0-0.1 0-0.1 0 0 0 0.1zm0 0q0 0 0 0 0 0 0 0.1 0 0 0 0 0 0 0-0.1 0 0 0 0zm-0.1 0.1q0.1 0.1 0.1 0c0 0 0 0 0 0q-0.1 0-0.1 0zm-0.1 0.9c0 0.1 0 0.2-0.1 0.3-0.1 0.1-0.1 0.1-0.1 0.1q0 0.1 0.1 0c-0.1 0.1-0.2 0.1-0.2 0.2 0.1 0 0.1-0.1 0.2-0.1 0 0.1-0.1 0.1-0.1 0.2q0 0 0 0 0-0.1 0.1-0.1 0 0 0 0 0 0 0 0c0.1-0.1 0.1-0.1 0.1-0.1 0 0 0 0.1-0.1 0.2 0 0.1-0.1 0.1 0 0.1q0 0 0 0h0.3q0 0 0 0 0 0-0.1 0c0 0 0 0.2 0.1 0.2q0 0 0 0 0 0 0 0.1c0 0 0 0 0 0.1q0 0-0.2 0c-0.1 0-0.2 0.1-0.2 0.1q0 0 0.1 0c0 0 0.1 0.2-0.2 0.3-0.1 0-0.1 0-0.1 0 0.1 0.1 0.1 0 0.2 0q0 0 0 0l0.2 0.1c0 0 0.1-0.1 0.1-0.1q-0.1 0.1-0.2 0.1c-0.2 0-0.4 0.3-0.4 0.3 0.1 0.1 0.1 0 0.2 0q0 0 0 0 0 0 0 0 0 0 0 0 0 0 0 0 0 0 0 0 0 0 0 0 0 0 0 0 0 0 0 0c0.2 0 0.2 0 0.2-0.1 0 0 0 0 0.2 0q0 0 0 0 0 0 0 0 0 0 0 0 0 0 0 0 0 0 0 0c0.2 0 0.4 0 0.6-0.1 0.1 0 0.2 0 0.2-0.1-0.1 0-0.1 0-0.2 0 0.1-0.2 0.3-0.2 0.3-0.3 0-0.2-0.2-0.1-0.3-0.1q0 0 0 0 0 0 0 0c0.1-0.1 0.1-0.1 0.1-0.1q0 0 0 0c0 0-0.1-0.1-0.1-0.1 0 0 0 0 0-0.1q0 0 0-0.1c-0.1 0-0.1-0.1-0.1-0.1-0.1-0.1 0-0.2-0.1-0.2 0-0.1-0.1-0.1-0.2-0.1 0-0.1 0.1 0 0.1-0.1q0 0 0 0 0 0 0 0 0 0 0-0.1c0.1 0 0.3-0.2 0.2-0.2 0-0.1-0.2 0-0.3 0-0.1 0-0.1 0-0.1 0 0 0 0 0 0.1 0q0-0.1 0-0.1 0 0 0 0 0 0 0 0c0.2-0.1 0.2-0.1 0.2-0.2q0 0 0 0c-0.3 0-0.3 0.1-0.3 0.1zm-1.2 1.6q0 0 0 0c0 0 0.2 0 0.2 0q0 0 0-0.1c0.1 0 0.1 0 0.1 0 0.1 0 0.1 0 0.2-0.1q0 0 0.1 0 0 0 0 0 0 0 0 0l0.1-0.2c0 0 0.1-0.1 0.1-0.2q0 0 0 0 0 0 0 0 0.1-0.1 0.1-0.2 0 0 0 0 0 0 0 0 0-0.1 0-0.1 0 0 0 0 0-0.1 0-0.1c-0.1 0-0.1 0.1-0.1 0.1q-0.1-0.1-0.1-0.1h-0.1q0 0 0 0.1-0.2 0.1-0.2 0.1c0 0 0.1 0 0.1 0 0 0-0.1 0.1-0.1 0.1q-0.1 0-0.1 0-0.1 0-0.1 0c0 0 0 0 0 0q0 0-0.1 0.1c0 0 0.1 0 0.1 0q0 0 0 0 0 0-0.1 0.1 0 0 0 0 0 0 0 0 0.1 0.1 0.1 0.1 0 0 0 0c-0.1 0-0.1 0.1-0.1 0.1 0 0.1 0.1 0 0.1 0q0 0 0 0 0 0-0.1 0 0 0 0 0.1-0.1 0-0.1 0 0 0-0.1 0 0 0 0 0 0 0 0.1 0.1c0 0-0.1 0-0.1 0 0 0 0 0 0.1 0q0 0 0 0 0 0.1-0.1 0.1 0.1 0 0.1 0zm1.1-0.7q0 0 0 0 0 0 0.1 0 0-0.1 0-0.1 0 0-0.1 0.1 0 0-0.1 0 0 0 0 0 0 0 0 0 0 0 0.1 0zm-0.1-0.8q0 0 0 0 0 0 0 0 0 0 0.1 0.1 0 0 0 0 0 0 0 0 0 0 0 0 0-0.1 0-0.1 0 0 0 0 0 0 0 0 0-0.1 0-0.1 0 0 0 0-0.1 0-0.1 0 0 0 0 0.1 0 0 0 0 0 0 0 0 0 0 0 0zm0-0.1q0 0 0 0 0 0 0 0 0 0 0 0 0 0 0.1 0 0-0.1 0-0.1 0 0 0 0 0 0 0 0 0 0 0 0 0 0 0 0c0 0 0.1-0.1 0-0.1 0 0 0 0 0 0.1q-0.1 0-0.1 0 0 0 0 0 0 0 0 0 0 0 0 0.1zm-0.1 0q0 0 0 0c0 0.1 0 0 0 0q0.1 0 0 0zm-1.4-1.5q0.1 0 0.1 0 0.1 0 0.1 0 0 0 0 0c0.1 0.1 0.2 0.1 0.2 0.1 0 0 0.1 0 0.1 0q0.1 0 0.1-0.1c0.2 0 0.2 0 0.2 0q0 0 0 0 0.1-0.1 0.2-0.1 0 0 0 0 0 0 0 0 0 0 0 0c0.1 0 0.1 0 0.1-0.1q0.1 0 0.1 0c0 0 0 0 0 0 0.1 0 0.1-0.1 0.1-0.1 0 0 0.1-0.1 0.1-0.1q0 0 0 0-0.1 0-0.1 0 0 0 0-0.1 0 0 0 0c0 0 0 0 0 0q0 0 0 0c0-0.1 0.1-0.1 0.1-0.1-0.1 0-0.1 0-0.1 0-0.1 0-0.1 0-0.1 0-0.1 0-0.1 0.1-0.1 0.1q0 0 0-0.1c0 0 0 0-0.1 0.1 0 0 0-0.1-0.1-0.1q0 0 0 0.1c0 0 0 0 0 0q0 0 0-0.1 0 0 0 0c-0.1 0.1-0.1 0.1-0.1 0.1q-0.1 0-0.1 0 0 0 0 0 0 0 0 0 0 0 0 0c-0.1 0.1-0.1 0.1-0.2 0.1q0 0 0 0c-0.1 0.1-0.1 0.1-0.1 0.1 0-0.1 0.1-0.1 0.1-0.1 0-0.1 0-0.1 0-0.1 0-0.1 0-0.1-0.1-0.1q0 0 0 0 0.1 0 0.1 0-0.1 0-0.1 0 0 0 0 0.1c0 0 0 0 0 0q0 0 0 0 0 0 0 0 0 0 0 0 0 0 0 0 0 0 0 0 0 0 0 0 0 0 0 0c-0.1 0-0.1-0.1-0.1 0 0 0 0 0-0.1 0q0 0 0.1 0c0 0.1-0.1 0.1-0.1 0.1q0 0 0-0.1 0 0 0 0 0 0.1 0 0.1-0.1 0-0.1 0c0 0 0.1 0 0.2 0 0 0 0 0 0.1 0-0.1 0-0.1 0-0.1 0.1 0 0 0 0 0 0q0 0-0.1 0c0 0-0.2 0-0.2 0.1q0 0 0 0c0.1 0 0.1 0 0.2 0q0 0 0 0c0 0.1 0 0 0 0-0.1 0.1-0.1 0.1-0.1 0.2-0.1 0-0.1 0-0.1 0zm-1.5 9.1c0 0 0 0 0.1-0.1q0 0 0 0c-0.1 0-0.1 0-0.1 0.1zm-0.1 0.2c0 0 0-0.1 0-0.1q0.1-0.1 0-0.1 0 0 0 0 0 0.1 0 0.1 0 0 0 0 0 0.1 0 0.1zm-0.4 0.1c0 0 0.1 0 0.1-0.1q0 0 0 0 0 0 0 0 0 0 0 0 0 0-0.1 0 0 0 0 0c0 0 0 0.1 0 0.1zm-0.2-0.1q0 0 0 0 0 0 0 0 0 0 0 0 0.1 0 0.1 0 0 0 0 0 0-0.1 0-0.1 0 0 0 0 0 0 0 0 0 0 0 0 0 0 0 0 0 0-0.1 0 0 0 0 0.1zm-4.2-5.1q-0.1 0.1-0.1 0.2 0 0 0 0c0.2-0.2 0.2-0.2 0.2-0.3q0 0 0 0 0 0 0 0c0 0 0.1-0.1 0.1-0.1q0 0-0.1 0 0 0 0 0-0.1 0.1-0.2 0.2 0.1 0 0.1 0 0 0 0 0zm0.9 16.4c-0.2-0.7-0.2-0.7 0-1.4q0 0 0 0 0.1 0 0.1 0c0-0.3 0.1-0.4 0-0.8 0 0-0.2-0.4-0.2-0.4-0.1-0.1-0.3-0.1-0.4-0.2-0.1-0.1-0.2-0.2-0.3-0.3-0.1 0-0.1 0-0.7-0.2q-0.1 0-0.1 0c-0.1 0-0.1-0.2-0.2-0.2q0 0 0 0c-0.4-0.3-0.4-0.3-0.5 0.2 0-0.1 0-0.1 0-0.1q-0.1 0-0.1 0c0 0 0 0-0.1 0q0-0.1 0-0.1c0.3-0.1 0.2-0.4 0.2-0.4-0.1 0-0.3 0-0.3 0.2 0 0 0.1 0.1 0.1 0.2q-0.1-0.2-0.1-0.4c-0.1 0.1 0 0.2 0 0.3-0.1-0.1-0.1-0.2 0-0.5 0.1-0.2-0.1-0.7-0.2-0.9q-0.1 0-0.1 0c-0.1-0.1-0.1-0.3-0.3-0.4-0.1 0-0.2 0-0.4 0 0-0.1-0.1-0.2-0.1-0.3q0 0-0.1 0 0-0.1 0-0.2c0.3 3.4 1.7 6.4 3.9 8.8l-0.1-0.3c-0.3-0.5-0.3-0.5-0.2-0.7 0-0.2 0.1-0.3 0.1-0.4 0.1-0.1 0.2 0 0.3 0 0.1-0.7-0.1-1.4-0.2-1.5zm1.7-14q0-0.1-0.1-0.1c0 0 0 0.1 0 0.1 0 0 0 0 0.1 0q0 0 0 0zm0-0.1q0 0 0 0 0 0 0 0c0 0 0 0 0 0q0 0 0 0zm0.2 0q0-0.1 0-0.1-0.1 0.1-0.1 0.1c0 0 0.1 0 0.1 0zm0.3 0.2q0 0 0 0c-0.1 0-0.2 0-0.2 0q0 0 0.1 0 0.1 0 0.1 0zm0.6-6.1q-0.2 0.1-0.4 0.3 0 0 0 0l0.2-0.1zm15.9 18.8c-0.1 0.1-0.1 0.1-0.1 0.2 0 0.1-0.2 0.2-0.2 0.2 0 0 0 0 0 0q0 0 0 0 0 0.1-0.1 0.1c0 0.1 0 0.1 0 0.2-0.1 0-0.1 0-0.1-0.1-0.1 0.1-0.1 0.2-0.1 0.2 0 0-0.1-0.1-0.1 0.1-0.1 0.1-0.1 0-0.2 0 0 0 0 0.1-0.1 0.1q0 0 0 0c-0.1 0-0.1 0-0.3 0.3 0 0 0 0.2 0 0.4 0 0.1 0 0.1 0 0.1-0.2 0.3-0.3 0.5-0.3 0.5 0 0-0.1 0.1-0.1 0.1v0.5c0.1 0.1 0.2 0.2 0.3 0.2 0 0 0.3-0.1 0.4-0.1 0-0.1 0.8-1.5 0.8-1.7 0-0.1 0.1-0.4 0.2-0.5q0 0 0 0 0 0.1 0 0.1c0 0 0 0 0.1-0.1 0-0.2 0-0.7-0.1-0.8zm6.4-5c0-0.2-0.2-0.6-0.2-0.6q-0.1 0-0.1 0 0 0 0 0.1 0 0 0 0.1 0 0.1 0 0.2 0 0 0 0.1c0 0 0 0.5 0.1 0.5q0 0 0 0 0 0 0 0 0 0 0 0 0 0 0 0c0 0 0.2-0.1 0.2-0.4zm-0.2 0.4q0 0 0 0 0 0 0 0 0 0 0 0zm0 0q0 0 0 0 0 0 0 0 0 0 0 0zm-10.1-16.1c0 0 0.1 0.1 0.1 0.1q0 0 0 0 0-0.1 0-0.1 0 0 0 0.1 0 0 0.1 0v-0.1q0 0 0 0 0 0 0 0 0 0 0-0.1 0 0 0 0 0 0-0.1 0 0 0-0.1 0 0 0 0 0 0 0 0 0.1zm-7.2 7.7q0 0 0 0 0 0 0 0 0 0 0 0 0-0.1 0-0.1 0 0 0 0.1 0 0 0 0zm0.2-0.2q0.1 0 0.1 0 0 0.1 0.1 0.1 0 0 0 0c0 0 0 0 0.1-0.1q0 0 0 0-0.1 0-0.1 0 0-0.1 0-0.1 0 0 0 0c0 0 0 0-0.2 0.1q0 0 0 0 0 0 0 0zm0.4-0.1q0 0 0 0 0 0 0 0 0 0 0 0.1 0.1 0 0.1-0.1c0 0 0 0-0.1 0 0 0 0 0 0 0q-0.1 0 0 0 0 0 0 0zm1-0.3q0 0 0 0.1 0-0.1 0-0.1c-0.1 0-0.1 0.1-0.1 0.1 0 0 0 0 0.1 0 0 0.1 0 0.1 0 0.2 0 0 0 0 0 0 0 0.1 0 0.1 0 0.2q0 0 0 0.1 0.1 0 0.1 0 0 0 0-0.1 0.1 0 0.1 0 0 0 0 0 0.1-0.1 0.1-0.2 0-0.1 0-0.1c0-0.1-0.1-0.2-0.1-0.2q-0.1 0-0.1 0 0 0-0.1 0zm0.1-0.2c0 0 0 0.1 0 0.1 0 0 0.1 0 0.1 0 0 0 0.1-0.2 0.1-0.2l-0.1-0.2q0 0 0 0 0 0 0 0 0 0.1 0 0.1c0 0-0.1 0-0.1 0q0 0 0 0 0 0 0 0 0 0 0 0.1c0 0 0 0.1 0 0.1zm1.5 1.2c-0.1-0.1 0-0.2 0-0.2q0-0.1 0-0.1c-0.1 0-0.2 0.1-0.3 0.1q-0.1 0-0.1 0 0 0-0.1 0c0 0-0.2 0-0.2 0 0 0 0 0.1 0 0.1q0 0 0.1 0 0 0 0 0 0.1 0.1 0.2 0.1 0.1 0 0.1 0 0.1 0.1 0.1 0.1 0.1 0 0.1 0c0 0 0.1 0 0.1-0.1 0 0 0 0 0 0zm-0.2 0.3q-0.1 0 0 0.1 0 0 0 0 0 0 0 0 0-0.1 0-0.1zm1.4-0.6q0 0.1 0.1 0.1 0 0 0 0 0 0 0 0c0 0 0-0.1-0.1-0.1q0 0 0 0 0 0 0 0 0 0 0 0 0 0 0 0 0 0 0 0zm0.9 0q0-0.1 0-0.1 0 0-0.1 0c0 0 0 0-0.1-0.1 0 0 0 0 0 0q-0.1 0-0.1 0 0 0 0 0 0 0.1 0.1 0.1c0 0 0 0 0 0q0 0 0.1 0.1 0 0 0 0c0.1 0 0.1 0 0.1 0.1q0 0 0 0 0 0 0.1 0 0 0 0 0 0 0 0 0 0 0 0-0.1 0 0 0 0 0 0 0 0-0.1 0-0.1 0zm0.1-0.6q0 0 0 0 0-0.1 0-0.1-0.1 0-0.1 0.1c0 0 0.1 0 0.1 0zm-0.2 1.3c0 0 0 0 0 0 0 0.1 0 0.1 0 0.1 0.2 0 0.2 0 0.3 0.1q0 0 0 0 0.1 0 0.1 0c0 0 0 0 0.1 0 0-0.1 0.1-0.1 0.1 0q0 0 0 0 0 0 0-0.1 0 0 0 0 0 0 0 0-0.1 0-0.1 0c0 0 0 0-0.1 0q0 0-0.1-0.1 0 0-0.1 0-0.1 0-0.1 0 0 0 0 0 0 0 0 0 0 0-0.1 0zm0.2-0.6q0 0 0 0 0 0 0 0 0 0 0 0 0 0 0.1 0 0 0 0 0.1 0 0 0 0 0 0 0 0 0 0 0 0 0-0.1 0-0.1 0 0 0 0c0 0 0 0-0.1 0zm0-0.5h0.1q0 0 0 0c0 0 0 0 0 0q0 0 0-0.1 0 0 0 0c0 0-0.1 0-0.1 0q0 0 0 0.1zm0.2 0.7c0 0.1 0.1 0 0.1 0q0 0-0.1 0c0 0 0 0 0 0zm0.1-0.4q0 0 0 0 0 0 0 0 0 0.1 0 0.1 0 0 0 0c0 0 0 0 0 0q0 0 0-0.1 0.1 0 0 0-0.1 0 0 0zm0-0.1q0 0 0 0 0-0.1 0-0.1 0 0 0 0.1 0 0 0.1 0 0 0 0 0 0 0 0 0 0 0 0 0 0 0 0 0 0 0 0 0c0 0 0-0.1 0-0.1-0.1 0-0.1 0-0.1 0q-0.1 0.1 0 0.1zm0.5 0.8c0 0 0 0 0.1 0q0 0 0-0.1 0 0 0 0c0 0-0.1 0-0.1 0 0 0.1 0 0.1 0 0.1zm1.1 0.3c0 0 0 0 0 0 0 0 0.2 0 0.2 0q0 0 0 0 0 0 0 0 0 0 0.1 0v-0.1q0.1 0 0.1 0 0 0 0 0 0-0.1 0-0.1 0.1-0.1 0.1-0.1 0 0 0 0 0 0-0.1 0 0 0.1-0.1 0.1-0.1 0-0.2 0 0 0 0 0 0 0 0 0 0 0.1 0 0.1 0 0-0.1 0c0 0-0.1 0-0.1 0q0 0 0.1 0.1zm-5-5.2q0 0 0 0 0 0 0 0 0 0 0.1 0 0 0 0 0 0 0 0 0c0 0 0-0.1 0-0.1q-0.1 0-0.1 0.1zm0.2-0.3v0.1q0 0-0.1 0 0 0 0 0 0 0 0 0 0 0 0 0 0 0 0 0.1 0 0 0 0 0 0 0 0c0 0 0 0 0.1 0q0 0 0.1 0.1 0 0 0 0 0 0 0-0.1 0 0 0 0 0 0 0.1 0 0 0 0-0.1 0 0 0 0 0 0 0 0c0-0.1 0-0.1-0.1-0.1 0 0 0 0 0 0 0 0.1 0 0.1 0 0q0 0 0 0.1 0 0 0 0 0-0.1-0.1-0.1 0 0 0 0 0 0 0 0 0 0 0 0zm0 0.3q0 0 0 0 0.1 0 0.1 0c0 0.1 0 0 0 0q0 0 0 0 0 0 0 0 0 0-0.1 0 0-0.1 0-0.1 0 0 0 0.1 0 0 0 0zm0 0q0 0 0 0-0.1 0-0.1 0 0 0 0 0 0 0 0 0 0 0 0 0 0 0 0 0 0 0 0 0 0.1 0 0.1 0 0 0 0 0 0 0 0 0 0 0 0 0 0 0 0 0 0 0 0 0zm0.3 0.1q0 0 0 0 0 0 0 0 0 0 0 0c0 0.1 0.1 0 0.1 0q0 0 0 0 0 0 0 0 0 0 0 0 0 0 0 0-0.1 0-0.1 0 0-0.1 0-0.1 0 0 0 0 0 0 0 0.1 0 0 0 0zm0.3-0.2q0 0 0 0c0.1 0 0 0 0 0q0 0 0 0c0 0 0 0 0 0zm0.3-0.3q0 0 0 0c0 0 0.1-0.2 0.1-0.2q0 0 0 0 0 0 0 0 0 0-0.1 0.1 0 0 0 0 0 0 0 0.1 0 0 0 0zm0.3-0.2c0 0 0.1-0.1 0.1-0.1q0 0 0 0 0.1 0 0.1 0-0.1 0 0-0.1 0 0 0 0-0.1 0-0.1 0c0 0-0.1 0-0.1 0.1 0 0 0 0 0 0q0 0.1 0 0.1 0 0 0 0c0 0 0 0 0 0zm0.3-0.8q0 0 0 0 0 0 0 0 0 0 0 0 0 0 0 0 0 0 0 0 0 0 0 0 0 0 0 0 0 0.1 0 0.1 0 0 0 0 0 0 0.1 0 0 0 0 0 0 0-0.1-0.1 0 0 0 0zm0.4 0.4q0 0 0 0v0.1q0 0 0 0 0 0 0 0 0 0 0 0.1 0 0 0 0 0.1 0 0.1-0.1 0 0 0 0 0 0 0.1 0 0 0 0 0c0 0 0 0 0-0.1 0 0-0.1 0-0.1 0q0 0 0 0 0 0 0 0h-0.1q0 0 0 0zm0.1 0q0 0 0 0 0 0 0 0 0 0 0 0 0 0 0 0 0 0 0.1-0.1 0 0 0 0c0 0-0.1 0-0.1 0q0 0 0 0 0 0 0 0-0.1 0-0.1 0 0 0 0 0 0 0 0.1 0.1zm14.4 11.8c0 0 0 0 0-0.2q0-0.1 0-0.1c-0.1 0.1-0.1 0.5-0.1 0.6 0 0 0-0.2 0.1-0.3z"/></svg>