<svg id="Component_135_1" data-name="Component 135 – 1" xmlns="http://www.w3.org/2000/svg" width="187.297" height="58.686" viewBox="0 0 187.297 58.686">
  <g id="Group_78" data-name="Group 78" transform="translate(89.004 13.479)">
    <path id="Path_153" data-name="Path 153" d="M50.066,6.8v6.221c0,2.074.415,2.9,2.074,2.9s1.866-.829,1.866-2.9V6.8H56.08v6.014c0,3.111-1.037,4.562-3.94,4.562s-3.94-1.244-3.94-4.355V6.8Z" transform="translate(-48.2 -6.178)" fill="#19202f"/>
    <path id="Path_154" data-name="Path 154" d="M52.9,8.2h1.659l.207.829a4.168,4.168,0,0,1,2.7-.829c1.452,0,2.281.829,2.281,2.488v5.184H57.669V11.1c0-1.037-.207-1.244-.829-1.244a3.309,3.309,0,0,0-1.659.622v5.184H53.107L52.9,8.2Z" transform="translate(-43.154 -4.675)" fill="#19202f"/>
    <path id="Path_155" data-name="Path 155" d="M58.137,8.674c-.829,0-1.037-.207-1.037-1.037S57.307,6.6,58.137,6.6s1.037.207,1.037,1.037S58.966,8.674,58.137,8.674ZM57.1,9.918h2.074v7.465H57.1Z" transform="translate(-38.644 -6.393)" fill="#19202f"/>
    <path id="Path_156" data-name="Path 156" d="M59.737,9.381V7.307L61.811,7.1V9.381h1.452v1.452H61.6v3.525c0,.829.207,1.037.829,1.037.415,0,.622,0,.829-.207l.207,1.452a4.043,4.043,0,0,1-1.659.207c-1.659,0-2.074-.622-2.074-2.074V10.625H58.7V9.174l1.037.207Z" transform="translate(-36.926 -5.856)" fill="#19202f"/>
    <path id="Path_157" data-name="Path 157" d="M67.414,15.565a10.1,10.1,0,0,1-2.488.207c-2.281,0-3.525-.622-3.525-3.733S62.644,8.1,64.718,8.1s2.9.622,2.9,3.318v1.037H63.266c0,1.452.415,1.866,1.866,1.866.83,0,1.244-.207,2.074-.207Zm-1.244-4.147c0-1.452-.415-1.659-1.244-1.659s-1.244.415-1.244,1.659Z" transform="translate(-34.027 -4.782)" fill="#19202f"/>
    <path id="Path_158" data-name="Path 158" d="M69.969,16.661a5.1,5.1,0,0,1-2.281.829c-1.659,0-2.488-.829-2.488-3.733s1.452-3.94,3.111-3.94a4.88,4.88,0,0,1,1.659.415h0V6.5h2.074V17.491H70.384Zm-.207-4.77a2.947,2.947,0,0,0-1.244-.415c-.829,0-1.452.415-1.452,2.281s.415,2.281,1.244,2.281a2.757,2.757,0,0,0,1.452-.622Z" transform="translate(-29.947 -6.5)" fill="#19202f"/>
    <path id="Path_159" data-name="Path 159" d="M71.4,6.8h2.488l2.9,5.392c.415.829.829,1.659,1.244,2.7h0a13.764,13.764,0,0,1-.207-2.7V6.8h1.659V17.168H77l-2.9-5.392c-.415-.829-.829-1.659-1.244-2.7h0c0,1.037.207,2.074.207,2.7v5.392H71.4Z" transform="translate(-23.29 -6.178)" fill="#19202f"/>
    <path id="Path_160" data-name="Path 160" d="M81.069,14.943a5.1,5.1,0,0,1-2.281.829c-1.659,0-2.488-.829-2.488-3.733S77.752,8.1,79.411,8.1a6.055,6.055,0,0,1,1.866.415V8.1h1.659v7.465H81.277Zm-.207-4.77a2.947,2.947,0,0,0-1.244-.415c-.83,0-1.452.415-1.452,2.281s.415,2.281,1.244,2.281a2.756,2.756,0,0,0,1.452-.622Z" transform="translate(-18.029 -4.782)" fill="#19202f"/>
    <path id="Path_161" data-name="Path 161" d="M81.029,9.381V7.307L83.1,7.1V9.381h1.659v1.452H83.1v3.525c0,.829.207,1.037.829,1.037.415,0,.622,0,.829-.207l.207,1.452a4.043,4.043,0,0,1-1.659.207c-1.659,0-2.074-.622-2.074-2.074V10.625H80.2V9.174l.829.207Z" transform="translate(-13.842 -5.856)" fill="#19202f"/>
    <path id="Path_162" data-name="Path 162" d="M84.037,8.674c-.83,0-1.037-.207-1.037-1.037S83.207,6.6,84.037,6.6s1.037.207,1.037,1.037S84.866,8.674,84.037,8.674ZM83,9.918h2.074v7.465H83Z" transform="translate(-10.835 -6.393)" fill="#19202f"/>
    <path id="Path_163" data-name="Path 163" d="M88.118,15.98c-2.281,0-3.318-.829-3.318-3.94S86.044,8.1,88.325,8.1s3.318.829,3.318,3.94C91.643,14.943,90.4,15.98,88.118,15.98Zm.207-6.428c-1.037,0-1.452.415-1.452,2.488s.415,2.488,1.452,2.488,1.452-.415,1.452-2.488S89.155,9.552,88.325,9.552Z" transform="translate(-8.903 -4.782)" fill="#19202f"/>
    <path id="Path_164" data-name="Path 164" d="M89,8.2h1.659l.207.829a4.168,4.168,0,0,1,2.7-.829c1.659,0,2.281.829,2.281,2.488v5.184H93.77V11.1c0-1.037-.207-1.244-.829-1.244a3.309,3.309,0,0,0-1.659.622v5.184H89.207L89,8.2Z" transform="translate(-4.393 -4.675)" fill="#19202f"/>
    <path id="Path_165" data-name="Path 165" d="M93,14.114a7.779,7.779,0,0,0,2.074.207c.829,0,1.244-.207,1.244-.829,0-.415-.207-.622-1.452-1.037C93.415,11.833,93,11.418,93,10.381,93,8.929,94.037,8.1,96.111,8.1c.622,0,1.244.207,1.866.207L97.77,9.759a4.566,4.566,0,0,0-1.659-.207q-1.244,0-1.244.622c0,.415.207.622,1.452,1.037,1.452.622,2.074,1.037,2.074,2.281,0,1.452-.829,2.281-3.318,2.281-.829,0-1.452-.207-2.074-.207Z" transform="translate(-0.098 -4.782)" fill="#19202f"/>
    <path id="Path_166" data-name="Path 166" d="M54.421,26.268a7.455,7.455,0,0,1-2.281.415c-2.7,0-3.94-.829-3.94-5.392,0-4.355,1.452-5.392,3.94-5.392.829,0,1.659.207,2.281.207l-.207.622a6.393,6.393,0,0,0-2.074-.207c-2.074,0-3.111.622-3.111,4.562s1.037,4.562,3.111,4.562a7.368,7.368,0,0,0,2.074-.415Z" transform="translate(-48.2 3.593)" fill="#19202f"/>
    <path id="Path_167" data-name="Path 167" d="M52.2,15.7h.829V26.691H52.2Z" transform="translate(-43.905 3.378)" fill="#19202f"/>
    <path id="Path_168" data-name="Path 168" d="M54.522,17.244c-.622,0-.622-.207-.622-.622a.622.622,0,1,1,.622.622Zm-.415,1.866h.829v7.258h-.829Z" transform="translate(-42.08 3.7)" fill="#19202f"/>
    <path id="Path_169" data-name="Path 169" d="M55.6,17.607h.829v.829a5.526,5.526,0,0,1,2.7-1.037,1.944,1.944,0,0,1,1.866,1.037,6.177,6.177,0,0,1,2.9-1.037c1.452,0,2.074.622,2.074,2.488v4.977h-.829V19.888c0-1.244-.415-1.866-1.452-1.866A5.749,5.749,0,0,0,61.2,19.059v5.806H60.37V19.888c0-1.244-.415-1.866-1.452-1.866a5.748,5.748,0,0,0-2.488,1.037v5.806H55.6Z" transform="translate(-40.255 5.203)" fill="#19202f"/>
    <path id="Path_170" data-name="Path 170" d="M66.677,24.143a3.985,3.985,0,0,1-2.488.829c-1.659,0-2.488-.829-2.488-3.733s1.452-3.94,3.111-3.94a3.5,3.5,0,0,1,2.074.622v-.415h.829v7.258h-.829Zm0-5.392a3.345,3.345,0,0,0-1.866-.622c-1.037,0-2.281.622-2.281,3.111s.622,3.111,1.866,3.111a7.753,7.753,0,0,0,2.281-.829Z" transform="translate(-33.705 5.096)" fill="#19202f"/>
    <path id="Path_171" data-name="Path 171" d="M66.544,18.788V16.507l.829-.207v2.281h1.659V19.2H67.374V24.18c0,.829.207,1.037.829,1.037.415,0,.622,0,.829-.207v.622a2.245,2.245,0,0,1-1.244.207c-1.037,0-1.452-.415-1.452-1.452V19.2H65.3v-.622h1.244v.207Z" transform="translate(-29.84 4.022)" fill="#19202f"/>
    <path id="Path_172" data-name="Path 172" d="M73.084,24.765a7.775,7.775,0,0,1-2.281.207c-1.866,0-2.9-.622-2.9-3.733s1.244-3.94,2.9-3.94c1.866,0,2.7.622,2.7,3.318v.622h-4.77c0,2.7.829,2.9,2.281,2.9.622,0,1.244-.207,1.866-.207Zm-.415-3.94c0-2.074-.622-2.7-1.866-2.7s-2.074.415-2.074,2.7Z" transform="translate(-27.048 5.096)" fill="#19202f"/>
    <path id="Path_173" data-name="Path 173" d="M79.221,26.268a7.455,7.455,0,0,1-2.281.415c-2.7,0-3.94-.829-3.94-5.392,0-4.355,1.452-5.392,3.94-5.392.83,0,1.659.207,2.281.207l-.207.829a6.393,6.393,0,0,0-2.074-.207c-2.074,0-3.111.622-3.111,4.562s1.037,4.562,3.111,4.562a7.368,7.368,0,0,0,2.074-.415Z" transform="translate(-21.572 3.593)" fill="#19202f"/>
    <path id="Path_174" data-name="Path 174" d="M77,15.7h.829v4.562h0a4.761,4.761,0,0,1,2.9-.829c1.452,0,2.281.622,2.281,2.488V26.9h-.829V21.921c0-1.244-.415-1.866-1.452-1.866a4.308,4.308,0,0,0-2.488,1.037V26.9h-.829V15.7Z" transform="translate(-17.278 3.378)" fill="#19202f"/>
    <path id="Path_175" data-name="Path 175" d="M85.877,24.143a3.985,3.985,0,0,1-2.488.829c-1.659,0-2.488-.829-2.488-3.733s1.452-3.94,3.111-3.94a3.5,3.5,0,0,1,2.074.622v-.415h.829v7.258h-.829Zm0-5.392a3.345,3.345,0,0,0-1.866-.622c-1.037,0-2.281.622-2.281,3.111s.622,3.111,1.866,3.111a7.753,7.753,0,0,0,2.281-.829Z" transform="translate(-13.09 5.096)" fill="#19202f"/>
    <path id="Path_176" data-name="Path 176" d="M84.9,17.607h.829v.829a5.5,5.5,0,0,1,2.9-1.037c1.452,0,2.281.622,2.281,2.488v4.977h-.829V19.888c0-1.244-.415-1.866-1.452-1.866a4.308,4.308,0,0,0-2.488,1.037v5.806H84.9V17.607Z" transform="translate(-8.795 5.203)" fill="#19202f"/>
    <path id="Path_177" data-name="Path 177" d="M94.706,25.387c0,2.074-1.037,2.9-3.111,2.9a8.506,8.506,0,0,1-2.281-.207l.207-.622a6.393,6.393,0,0,0,2.074.207c1.659,0,2.281-.622,2.281-2.281V24.143h0a5.081,5.081,0,0,1-2.488.829c-1.659,0-2.488-.829-2.488-3.733s1.452-3.94,3.111-3.94a3.5,3.5,0,0,1,2.074.622v-.415h.829v7.88h-.207ZM93.67,18.752a3.345,3.345,0,0,0-1.866-.622c-1.037,0-2.281.622-2.281,3.111s.622,3.111,1.866,3.111a7.753,7.753,0,0,0,2.281-.829Z" transform="translate(-4.501 5.096)" fill="#19202f"/>
    <path id="Path_178" data-name="Path 178" d="M97.984,24.765a7.776,7.776,0,0,1-2.281.207c-1.866,0-2.9-.622-2.9-3.733s1.244-3.94,2.9-3.94c1.866,0,2.7.622,2.7,3.318v.622h-4.77c0,2.7.829,2.9,2.281,2.9.622,0,1.244-.207,1.866-.207Zm-.415-3.94c0-2.074-.622-2.7-1.866-2.7s-2.074.415-2.074,2.7Z" transform="translate(-0.313 5.096)" fill="#19202f"/>
  </g>
  <g id="Group_79" data-name="Group 79">
    <path id="Path_179" data-name="Path 179" d="M43.275,27.34c-3.733-1.659-7.673-3.733-12.027-2.7-.415,0-.829.207-1.452.207-.415,0-.829-.207-1.452-.207-4.562-1.037-8.295,1.037-12.027,2.7A10.4,10.4,0,0,1,7.4,26.51a11.228,11.228,0,0,0,4.562,3.111,9.974,9.974,0,0,0,9.332-1.452c2.281-1.244,4.147-3.733,7.051-2.7a30.667,30.667,0,0,0-8.087,5.806l1.452,1.244a22,22,0,0,1,6.636-5.806c.622-.207.829-.622,1.452-.622a3.1,3.1,0,0,1,1.452.622,25.259,25.259,0,0,1,6.636,5.806l1.452-1.244a30.667,30.667,0,0,0-8.087-5.806c2.9-.829,4.769,1.452,7.051,2.7a9.974,9.974,0,0,0,9.332,1.452,11.228,11.228,0,0,0,4.562-3.111A9.162,9.162,0,0,1,43.275,27.34Z" transform="translate(7.905 26.161)" fill="#19202f"/>
    <path id="Path_180" data-name="Path 180" d="M8.583,12.087A13.763,13.763,0,0,0,9.827,7.94,7.275,7.275,0,0,1,8.79,9.6c-2.074,1.866-4.562,3.94-4.977,6.636a2.63,2.63,0,0,1-.207,1.244H3.4l.207-3.525c0-3.318-1.452-7.051.415-9.954H3.813C2.154,6.281.7,8.77.91,11.673.7,15.405,2.984,18.1,3.4,21.419,4.021,17.894,7.131,15.2,8.583,12.087Z" transform="translate(0.916 4.295)" fill="#19202f"/>
    <path id="Path_181" data-name="Path 181" d="M11.753,29.167c-.415-.829-.829-1.659-1.244-2.7C9.472,22.117,10.094,17.14,8.228,13.2c.415,2.281-.622,4.355-.829,6.428a7.974,7.974,0,0,0,.829,4.977c.207.415.622.829.622,1.244-.622-.622-1.037-1.452-1.659-2.074C5.117,20.251.555,17.969.14,13.822a12.641,12.641,0,0,0,.622,5.6C2.629,24.191,7.813,26.679,11.753,29.167Z" transform="translate(0.027 14.173)" fill="#19202f"/>
    <path id="Path_182" data-name="Path 182" d="M2.665,15.179a8.877,8.877,0,0,1,2.9-3.318c2.7-1.866,5.6-4.562,5.6-8.087C10.337,6.262,7.642,7.3,5.775,8.958A8.2,8.2,0,0,0,3.7,12.068h0c.207-1.037.622-1.866.829-2.9.829-2.7.622-5.806,3.111-7.465A6.053,6.053,0,0,0,4.324,3.981c-2.074,2.281-1.866,5.6-1.659,8.5A11.682,11.682,0,0,1,2.665,15.179Z" transform="translate(2.686 1.825)" fill="#19202f"/>
    <path id="Path_183" data-name="Path 183" d="M6.2,26.034h0a14.284,14.284,0,0,1,.207-4.147,58.194,58.194,0,0,0,1.659-6.428,23.648,23.648,0,0,0,.415-5.392,6.387,6.387,0,0,1-1.037,2.488c-1.866,2.9-3.733,6.221-2.488,9.954H4.749c-.622-1.244-.622-2.7-1.037-3.94C2.882,15.043.186,12.14,1.016,8.2a13.413,13.413,0,0,0-.829,2.7,17.028,17.028,0,0,0,.622,7.258C2.053,21.472,4.749,23.545,6.2,26.034Z" transform="translate(-0.019 8.804)" fill="#19202f"/>
    <path id="Path_184" data-name="Path 184" d="M4.1,9.539A25.814,25.814,0,0,0,8.455,5.6,38.5,38.5,0,0,1,13.017,0C10.528,1.037,7.625,1.866,5.966,4.562,4.929,6.014,4.929,8.087,4.1,9.539Z" transform="translate(4.362 0)" fill="#19202f"/>
    <path id="Path_185" data-name="Path 185" d="M37.221,13.846l.207,3.525s0,.207-.207,0a2.63,2.63,0,0,1-.207-1.244c-.415-2.7-2.9-4.769-4.977-6.636A4.515,4.515,0,0,1,31,7.833a15.8,15.8,0,0,0,1.244,4.147c1.659,3.111,4.562,5.806,5.184,9.539.207-3.525,2.7-6.221,2.488-9.746,0-3.111-1.244-5.392-2.9-7.673h-.207C38.88,6.8,37.221,10.321,37.221,13.846Z" transform="translate(33.244 4.402)" fill="#19202f"/>
    <path id="Path_186" data-name="Path 186" d="M36.8,18.768c-.415,1.244-.415,2.7-1.037,3.94h-.207c1.244-3.733-.622-7.051-2.488-9.954a12.686,12.686,0,0,1-1.037-2.488,24.563,24.563,0,0,0,.415,5.392c.415,2.281,1.244,4.355,1.659,6.428a9.333,9.333,0,0,1,0,4.147l.207-.207c1.452-2.488,4.147-4.562,4.977-7.465a17.028,17.028,0,0,0,.622-7.258A4.557,4.557,0,0,0,39.7,8.4C40.324,12.34,37.628,15.243,36.8,18.768Z" transform="translate(34.289 9.019)" fill="#19202f"/>
    <path id="Path_187" data-name="Path 187" d="M36.236,9.165c.207,1.037.622,1.866.829,2.9h0a13.536,13.536,0,0,0-2.074-3.111C33.125,7.3,30.637,6.262,29.6,3.774c0,3.318,2.9,6.014,5.6,8.087a14.519,14.519,0,0,1,2.9,3.318,11.682,11.682,0,0,1,0-2.7c.207-2.9.415-6.428-1.659-8.5A7.368,7.368,0,0,0,33.125,1.7C35.614,3.359,35.406,6.469,36.236,9.165Z" transform="translate(31.741 1.825)" fill="#19202f"/>
    <path id="Path_188" data-name="Path 188" d="M32.462,5.6c1.244,1.452,2.9,2.488,4.355,3.94-.829-1.659-.829-3.525-1.866-4.977C33.5,1.866,30.6.829,27.9,0A28.451,28.451,0,0,1,32.462,5.6Z" transform="translate(29.916 0)" fill="#19202f"/>
    <path id="Path_189" data-name="Path 189" d="M32.384,28.005c-.622.415-1.037.829-1.659,1.244h0c-.207,0-.207.207-.415.207h0a.2.2,0,0,0,.207-.207h0a6.1,6.1,0,0,0,2.074-2.488c2.074-2.9,1.452-7.051,2.9-10.161a21.923,21.923,0,0,0-3.525,5.392c-1.037,2.281-1.452,4.977-2.9,7.051h0A8.428,8.428,0,0,1,27.2,31.116c2.7-.829,5.806-.829,8.5-2.074a4.338,4.338,0,0,0,1.244-.829,13.634,13.634,0,0,0,6.428-8.71C41.3,24.687,35.91,25.1,32.384,28.005Z" transform="translate(29.164 17.823)" fill="#19202f"/>
    <path id="Path_190" data-name="Path 190" d="M42.113,13.822c-.207,4.147-4.769,6.428-7.051,9.954A7.281,7.281,0,0,1,33.4,25.85c0-.415.622-.829.622-1.244a8.227,8.227,0,0,0,.829-4.977c-.207-2.074-1.037-4.147-.829-6.428-1.866,3.94-1.244,8.917-2.281,13.272a10.723,10.723,0,0,1-1.244,2.7c3.733-2.488,8.917-4.977,10.576-9.746A8.806,8.806,0,0,0,42.113,13.822Z" transform="translate(32.707 14.173)" fill="#19202f"/>
    <path id="Path_191" data-name="Path 191" d="M29.228,28.487c-.622,0-1.244.415-1.866.207.622-.415,1.244-.207,1.866-.622a7.544,7.544,0,0,0,3.318-2.9h0c1.037-1.659,1.659-3.318,2.7-4.769a61.739,61.739,0,0,0-5.6,4.769h0A5.5,5.5,0,0,1,28.4,26.206a11.423,11.423,0,0,1-5.6,2.488,4.566,4.566,0,0,0,1.659.207c3.733.829,7.88,2.488,11.82,1.037A11.43,11.43,0,0,0,42.5,24.962c0-.207.207-.207.207-.415l-.415.415C38.975,28.487,33.583,27.451,29.228,28.487Z" transform="translate(24.44 21.903)" fill="#19202f"/>
    <path id="Path_192" data-name="Path 192" d="M22.149,29c.622-.207,1.244,0,1.659-.207a11.423,11.423,0,0,1-5.6-2.488,5.5,5.5,0,0,0-1.244-1.037h0a29.752,29.752,0,0,0-5.6-4.769c1.037,1.452,1.659,3.318,2.7,4.769h0a6.569,6.569,0,0,0,3.318,2.9,6.591,6.591,0,0,1,1.866.622c-.622,0-1.244-.207-1.866-.207-4.355-1.037-9.746.207-13.064-3.111L3.9,25.062c0,.207.207.207.207.415a13.112,13.112,0,0,0,6.221,4.977C14.476,31.491,18.416,29.832,22.149,29Z" transform="translate(4.147 22.011)" fill="#19202f"/>
    <path id="Path_193" data-name="Path 193" d="M8.973,29.142c2.7,1.244,5.806,1.037,8.5,2.074a8.914,8.914,0,0,1-1.866-2.074h0c-1.452-2.074-1.866-4.769-2.9-7.051A21.923,21.923,0,0,0,9.18,16.7c1.659,3.111.829,7.258,2.9,10.161.622.829,1.452,1.659,2.074,2.488h0a.2.2,0,0,1,.207.207h0c-.207,0-.207-.207-.415-.207h0a11.5,11.5,0,0,1-1.659-1.244C8.765,25.2,3.374,24.787,1.3,20.018c.622,3.525,3.318,6.636,6.428,8.71A2.947,2.947,0,0,1,8.973,29.142Z" transform="translate(1.355 17.931)" fill="#19202f"/>
    <path id="Path_194" data-name="Path 194" d="M29.69,44.877A22.031,22.031,0,0,0,49.805,32.02l-4.977-2.281A16.887,16.887,0,0,1,29.69,39.278a16.59,16.59,0,0,1,0-33.179,16.887,16.887,0,0,1,15.138,9.539l4.977-2.281A22.179,22.179,0,0,0,7.5,22.689,21.952,21.952,0,0,0,29.69,44.877Z" transform="translate(8.011 0.537)" fill="#19202f"/>
    <path id="Path_195" data-name="Path 195" d="M24.535,10.277a7.56,7.56,0,0,1,6.014,3.111l4.147-2.9A13.287,13.287,0,0,0,24.535,5.3,12.126,12.126,0,0,0,12.3,17.535,12.126,12.126,0,0,0,24.535,29.77a11.986,11.986,0,0,0,9.954-5.184l-4.147-2.9a7.268,7.268,0,0,1-6.014,3.111,7.347,7.347,0,0,1-7.258-7.258A7.53,7.53,0,0,1,24.535,10.277Z" transform="translate(13.166 5.691)" fill="#19202f"/>
  </g>
</svg>
